<?xml version="1.0" encoding="UTF-8" standalone="no"?>
<!-- Created with Inkscape (http://www.inkscape.org/) -->

<svg
   width="730"
   height="630"
   viewBox="0 0 193.14583 166.6875"
   version="1.1"
   id="svg1"
   xml:space="preserve"
   inkscape:version="1.3 (0e150ed6c4, 2023-07-21)"
   sodipodi:docname="Circuitos.svg"
   xmlns:inkscape="http://www.inkscape.org/namespaces/inkscape"
   xmlns:sodipodi="http://sodipodi.sourceforge.net/DTD/sodipodi-0.dtd"
   xmlns="http://www.w3.org/2000/svg"
   xmlns:svg="http://www.w3.org/2000/svg"><sodipodi:namedview
     id="namedview1"
     pagecolor="#505050"
     bordercolor="#eeeeee"
     borderopacity="1"
     inkscape:showpageshadow="0"
     inkscape:pageopacity="0"
     inkscape:pagecheckerboard="0"
     inkscape:deskcolor="#d1d1d1"
     inkscape:document-units="mm"
     inkscape:zoom="0.4894542"
     inkscape:cx="930.62845"
     inkscape:cy="268.66661"
     inkscape:window-width="1920"
     inkscape:window-height="991"
     inkscape:window-x="-9"
     inkscape:window-y="-9"
     inkscape:window-maximized="1"
     inkscape:current-layer="layer1" /><defs
     id="defs1" /><g
     inkscape:label="Capa 1"
     inkscape:groupmode="layer"
     id="layer1"><g
       id="g16"
       transform="matrix(0.77242897,0,0,0.77242897,-56.128894,27.31532)"><path
         style="display:inline;fill:#dcdcdc"
         d="m 146.1168,178.62067 h -0.1323 l 1.30303,-1.32292 1.30302,-1.32292 h 0.13229 0.1323 l -1.30303,1.32292 -1.30302,1.32292 z m 95.54464,-2.90559 -1.40525,0.12746 -0.5591,-0.59531 -0.55909,-0.59531 h 0.23031 0.23032 l -0.9094,-0.99219 -0.90939,-0.99219 1.45281,1.37406 1.4528,1.37406 1.19062,0.086 1.19063,0.086 z m -122.93227,-0.0699 -30.443726,-0.065 30.413776,-0.0684 30.41378,-0.0684 0.80706,-0.72648 0.80705,-0.72648 -0.7771,0.85989 -0.77711,0.8599 z m 32.99013,0.0205 -1.12448,0.0445 v -0.20838 -0.20839 l 1.38906,-1.31297 1.38907,-1.31297 -1.295,1.37081 -1.29499,1.37082 1.03041,0.10606 1.03041,0.10607 z m 120.31927,-0.083 h -27.91354 l 13.95677,-0.0709 13.95677,-0.0709 13.95677,0.0709 13.95678,0.0709 z m -30.50987,-1.19541 h -0.0828 l -0.77711,-0.85989 -0.7771,-0.8599 0.85989,0.77711 0.8599,0.7771 v 0.0828 0.0828 z m -62.12585,-0.26458 h -0.21412 l 0.58586,-0.60869 0.58586,-0.60869 0.10862,0.0779 0.10862,0.0779 -0.48036,0.53079 -0.48036,0.53079 z m 94.9399,-0.52914 -25.60937,0.13227 -0.95111,-0.97406 -0.9511,-0.97406 0.43147,0.0633 0.43148,0.0633 0.74208,0.71096 0.74208,0.71096 25.38692,0.0675 25.38692,0.0675 z m -25.40572,-3e-5 h 0.0828 v -0.0828 -0.0828 l -0.85989,-0.7771 -0.8599,-0.77711 0.77711,0.8599 0.7771,0.85989 z m -132.60575,-0.12753 -28.045836,-2e-5 14.109316,-0.0708 14.10932,-0.0709 13.93652,0.0709 13.93651,0.0709 z m 40.44519,-1.55975 -0.44031,0.0646 1.41977,-1.43763 1.41977,-1.43763 h 0.0311 0.0311 v 0.38624 0.38623 l -1.01055,0.98677 -1.01054,0.98677 z m 0.19325,-0.1648 h 0.13229 l 1.03344,-1.05833 1.03343,-1.05834 h -0.13229 -0.13229 l -1.03344,1.05834 -1.03343,1.05833 z m 85.68686,-0.26458 h -0.13229 l -1.97113,-1.98438 -1.97114,-1.98437 h 0.1323 0.13229 l 1.97113,1.98437 1.97113,1.98438 z m -125.00239,-0.65691 -29.368746,-2e-5 14.770856,-0.0706 14.77086,-0.0706 14.59789,0.0707 14.5979,0.0707 z m 30.9687,0.08 -1.33536,-0.0477 1.32292,-0.0997 1.32291,-0.0997 1.05834,-0.97712 1.05833,-0.97713 -1.04589,1.12448 -1.04588,1.12448 z m 95.96516,0.001 -1.25677,-0.0462 1.15057,-0.10255 1.15056,-0.10256 -0.48911,-0.57882 -0.4891,-0.57883 0.59531,0.50403 0.59531,0.50403 v 0.22357 0.22358 z m 28.50886,-0.0811 H 246.2417 l 13.4276,-0.0711 13.42761,-0.071 13.4276,0.071 13.42761,0.0711 z m -124.60136,-1.40108 -0.94344,0.86214 1.4341,-1.50673 1.4341,-1.50673 0.23945,0.14799 0.23944,0.14798 -0.59421,0.6325 -0.5942,0.63251 -0.1359,-0.1359 -0.1359,-0.1359 z m 93.56651,0.20549 h -0.0786 l -1.04589,-1.12448 -1.04588,-1.12447 1.12448,1.04588 1.12448,1.04588 v 0.0786 0.0786 z m -2.32477,-2.38125 H 239.605 l -1.16851,-1.19062 -1.16851,-1.19063 h 0.13229 0.13229 l 1.16851,1.19063 1.16851,1.19062 z m -82.63592,-1.92133 -0.55342,0.46613 0.50402,-0.59532 0.50403,-0.59531 h 21.37463 21.37463 l 0.12268,0.19844 0.12267,0.19844 -21.4479,-0.0693 -21.44791,-0.0692 z m -36.80134,-0.58802 -32.014586,-10e-6 16.093906,-0.0703 16.09391,-0.0703 15.92068,0.0703 15.92067,0.0703 z m 101.46771,0.005 h -14.15521 l 7.0776,-0.075 7.07761,-0.075 7.0776,0.075 7.07761,0.075 z m 48.76509,0.0602 -29.41928,0.0631 -0.12268,-0.19843 -0.12269,-0.19844 18.95863,0.0664 18.95864,0.0664 10.58333,0.069 10.58334,0.069 z M 120.16774,164.20508 H 88.285444 l 15.941146,-0.0703 15.94115,-0.0703 15.94114,0.0703 15.94115,0.0703 z m 150.41563,3.5e-4 -29.36876,-2e-5 14.77086,-0.0706 14.77086,-0.0707 14.59789,0.0707 14.5979,0.0707 z m -83.21147,-2.38166 h -32.41145 l 16.20573,-0.0702 16.20572,-0.0703 16.20573,0.0703 16.20573,0.0702 z m 42.9948,0.0109 -7.9375,-2.2e-4 4.05125,-0.0806 4.05125,-0.0805 3.88625,0.0808 3.88625,0.0808 z m -56.4621,-1.93274 -0.42332,0.33018 0.36313,-0.46303 0.36312,-0.46302 62.87229,0.0656 62.8723,0.0656 -62.8121,0.0673 -62.8121,0.0672 z m -45.93165,-0.46017 -39.687506,2e-5 19.756836,-0.0695 19.75684,-0.0695 19.93066,0.0695 19.93067,0.0695 z m 8.52521,-3.11226 -0.11056,0.46302 0.026,-0.52916 0.026,-0.52917 h 0.39688 0.39687 l 0.0661,0.59531 0.0661,0.59531 -0.15069,-0.52916 -0.15069,-0.52917 h -0.22778 -0.22778 z m 141.89041,0.20454 h -21.56354 l 10.78177,-0.0722 10.78177,-0.0722 10.78177,0.0722 10.78178,0.0722 z m -93.00104,-0.26742 -41.53958,-1e-5 20.85676,-0.0694 20.85676,-0.0694 20.68282,0.0694 20.68282,0.0694 z m 54.71822,0.0712 -9.57553,0.0578 -0.12294,-0.19844 -0.12294,-0.19844 6.25889,0.0673 6.25888,0.0674 3.43959,0.0733 3.43958,0.0733 z m -96.46619,-0.20681 h -0.0761 l -1.31297,-1.38906 -1.31297,-1.38906 1.38906,1.31297 1.38906,1.31297 v 0.0761 0.0761 z m -1.54808,-0.79375 h -0.13567 l -0.62021,-0.66018 -0.6202,-0.66018 -26.21498,-0.0687 -26.214976,-0.0687 26.210396,-0.0648 26.21039,-0.0649 0.76047,0.79375 0.76046,0.79375 z m 134.18043,-1.44962 H 252.5917 l 11.8401,-0.0717 11.84011,-0.0717 11.8401,0.0717 11.84011,0.0717 z m -161.66042,-0.5297 H 88.285444 l 13.163026,-0.0711 13.16302,-0.0711 13.16302,0.0711 13.16302,0.0711 z m 69.0396,0.0624 -26.0781,0.0648 -0.77711,-0.8599 -0.7771,-0.85989 0.80687,0.7263 0.80686,0.7263 26.04834,0.0688 26.04835,0.0688 z m 42.87915,-0.0544 h -9.39271 l 4.69635,-0.0788 4.69636,-0.0788 4.69635,0.0788 4.69636,0.0788 z m 49.60938,-0.007 -23.81251,-3e-5 11.99236,-0.0716 11.99235,-0.0716 11.82015,0.0717 11.82015,0.0717 z m -38.47198,-0.40244 h -0.13229 l 1.03343,-1.05833 1.03344,-1.05833 h 0.13229 0.13229 l -1.03344,1.05833 -1.03343,1.05833 z m -93.75019,-2.11666 h -0.1448 l -1.48371,-1.60258 -1.4837,-1.60259 v -0.2495 -0.2495 h 4.5807 4.58071 l 0.77711,0.8599 0.7771,0.85989 -0.80823,-0.7276 -0.80822,-0.72761 h -4.47238 -4.47239 l 1.05634,1.12448 1.05634,1.12448 0.49497,0.59531 0.49496,0.59532 z m 94.79604,-0.26459 h -0.13229 l 2.10425,-2.11666 2.10425,-2.11667 h 0.13229 0.13229 l -2.10425,2.11667 -2.10425,2.11666 z m 1.33039,0 h -0.13229 l 1.30302,-1.32291 1.30303,-1.32292 h 0.13229 0.13229 l -1.30302,1.32292 -1.30303,1.32291 z m 10.33394,-0.52916 h -0.11709 l 0.47888,-0.52917 0.47889,-0.52917 h -0.2228 -0.2228 l 0.75415,-0.78715 0.75414,-0.78716 -4.47495,-0.0796 -4.47496,-0.0796 4.56406,-0.0593 4.56407,-0.0593 v 0.2802 0.2802 l 0.33073,-0.18562 0.33072,-0.18561 -1.31297,1.36062 -1.31297,1.36063 z m 0.79872,-1.05834 h 0.13229 l 0.62141,-0.66146 0.62141,-0.66145 h -0.13229 -0.1323 l -0.6214,0.66145 -0.62141,0.66146 z m -22.97601,0 h -0.0828 v -0.0828 -0.0828 l 0.8599,-0.7771 0.85989,-0.77711 -0.7771,0.8599 -0.77711,0.85989 z M 165.07081,148.194 h -0.0761 l -1.31297,-1.38906 -1.31297,-1.38906 1.38906,1.31297 1.38906,1.31297 v 0.0761 0.0761 z M 114.3469,147.27264 H 88.285444 l 13.030726,-0.0712 13.03073,-0.0712 13.03073,0.0712 13.03073,0.0712 z m 162.18959,5.5e-4 h -23.41563 l 11.70782,-0.0717 11.70781,-0.0717 11.70781,0.0717 11.70782,0.0717 z M 139.66411,146.3415 h -0.0828 l -0.7771,-0.8599 -0.77711,-0.85989 0.8599,0.7771 0.85989,0.77711 v 0.0828 0.0828 z m 39.15009,-0.98715 -0.13177,0.32569 0.01,-0.79375 0.01,-0.79375 0.12197,0.46806 0.12197,0.46805 z m -65.79021,-0.72728 H 88.285444 l 12.369276,-0.0714 12.36927,-0.0714 12.36927,0.0714 12.36927,0.0714 z m 92.73646,-2.8e-4 -26.19375,-3e-5 13.18315,-0.0711 13.18316,-0.0712 13.01059,0.0712 13.0106,0.0712 z m 30.57182,0.0689 -3.84891,-0.0583 3.83314,-0.0817 3.83313,-0.0817 1.06166,-0.98454 1.06166,-0.98454 -1.04589,1.12448 -1.04588,1.12448 z m 41.52714,-0.068 H 255.7667 l 11.04635,-0.072 11.04636,-0.072 11.04635,0.072 11.04636,0.072 z M 160.5662,144.48942 h -0.0828 l -0.77711,-0.8599 -0.7771,-0.8599 0.85989,0.77711 0.8599,0.77711 v 0.0828 0.0828 z m 81.61451,-0.52917 h -0.1323 l 0.62141,-0.66146 0.62141,-0.66146 h 0.13229 0.13229 l -0.6214,0.66146 -0.62141,0.66146 z m -92.9916,-1.85208 h -0.0828 l -0.7771,-0.8599 -0.77711,-0.8599 0.8599,0.77711 0.85989,0.77711 v 0.0828 0.0828 z m 94.82171,0 h -0.1323 l 1.43714,-1.45521 1.43713,-1.45521 h 0.13229 0.13229 l -1.43713,1.45521 -1.43713,1.45521 z m -95.61126,-2.11667 h -0.0786 l -1.04588,-1.12448 -1.04588,-1.12448 1.12447,1.04589 1.12448,1.04588 v 0.0786 0.0786 z m -31.27453,-1.18599 -28.839586,-2e-5 14.506246,-0.0707 14.50624,-0.0707 14.33334,0.0707 14.33334,0.0707 z m 156.50104,4.2e-4 h -26.32604 l 13.16302,-0.0711 13.16302,-0.0712 13.16302,0.0712 13.16303,0.0711 z m -6.62286,-7.86029 -1.46349,0.05 -1.55367,-1.57005 -1.55366,-1.57005 0.44281,0.065 0.4428,0.065 1.17382,1.15201 1.17381,1.15201 -0.12814,0.20734 -0.12814,0.20733 1.52867,0.0957 1.52868,0.0957 z m -1.60133,-0.47914 h 0.13229 l -1.16851,-1.19063 -1.16851,-1.19062 h -0.1323 -0.13229 l 1.16851,1.19062 1.16851,1.19063 z m 19.00596,0.46881 -14.88281,-0.0603 5.29167,-0.0713 5.29167,-0.0713 9.59125,-0.0668 9.59126,-0.0668 -1.1e-4,0.19844 -1.1e-4,0.19844 z m -22.80967,-4.26117 h -0.38624 l -0.98677,-1.01054 -0.98677,-1.01055 -0.0646,-0.44031 -0.0646,-0.44032 1.43764,1.41977 1.43763,1.41977 v 0.0311 0.0311 z m -0.22153,-0.17639 h 0.0786 v -0.0786 -0.0786 l -1.12448,-1.04588 -1.12448,-1.04589 1.04589,1.12448 1.04588,1.12448 z m 8.80401,0.21201 -1.99022,0.0526 -2.24311,-2.3151 -2.24312,-2.31511 2.24896,2.17238 2.24896,2.17237 1.98437,0.0902 1.98438,0.0902 z m 15.61626,-0.0702 h -13.36146 l 6.68073,-0.0754 6.68073,-0.0754 6.68073,0.0754 6.68073,0.0754 z M 268.5252,125.704 h -0.0738 l -1.71215,-1.78594 -1.71214,-1.78594 1.78593,1.71215 1.78594,1.71215 v 0.0738 0.0738 z m 17.81397,-2.84919 -12.95148,0.0711 0.19349,-0.19335 0.19349,-0.19336 12.75806,-0.0712 12.75806,-0.0712 -7e-5,0.19352 -6e-5,0.19352 z m -22.84336,-0.85498 h -0.0761 l -1.31297,-1.38906 -1.31297,-1.38906 1.38906,1.31297 1.38907,1.31297 v 0.0761 0.0761 z m 1.32577,0 h -0.0732 l -1.84499,-1.91823 -1.84499,-1.91823 1.91823,1.84499 1.91823,1.84499 v 0.0732 0.0732 z m 1.64342,-3.175 h -0.13304 l -1.43338,-1.45141 -1.43338,-1.4514 -7.95029,-0.074 -7.9503,-0.074 7.94579,-0.0621 7.94578,-0.0621 1.57094,1.5875 1.57093,1.5875 z m -11.0161,-2.38099 -7.99071,0.13203 0.20281,-0.20251 0.2028,-0.20251 7.78791,0.0705 7.78791,0.0705 z m 43.74215,-2.72287 -0.16498,0.16497 v -0.44046 -0.44046 l -67.4026,-0.0672 -67.40261,-0.0672 67.41091,-0.0656 67.41091,-0.0656 0.15668,0.40828 0.15667,0.40829 z m -10.74831,-5.60017 h -10.71562 l 5.35781,-0.0774 5.35781,-0.0774 5.35781,0.0774 5.35782,0.0774 z m -0.13229,-0.5293 -10.84792,-1.2e-4 5.50782,-0.0772 5.50783,-0.0772 5.34009,0.0774 5.3401,0.0774 z m -26.2599,-1.19103 -1.25677,1.17957 1.17824,-1.25541 1.17823,-1.25541 -24.99073,-0.0689 -24.99074,-0.0689 25.06927,-0.0648 25.06927,-0.0648 v 0.20949 0.2095 z m 7.73907,-1.44426 -5.02709,-4.6e-4 2.59343,-0.0867 2.59343,-0.0867 2.43366,0.0871 2.43365,0.0871 z m 20.71661,-0.15407 -8.65214,0.13207 0.20249,-0.20222 0.20248,-0.20222 8.44965,0.0701 8.44966,0.0701 z m -26.65733,-0.26481 h -0.13229 l 2.10426,-2.11666 2.10425,-2.11667 h 0.13229 0.13229 l -2.10425,2.11667 -2.10425,2.11666 z m 26.79227,-0.32148 -8.5172,0.0569 -0.12299,-0.19844 -0.123,-0.19844 5.59749,0.0675 5.59748,0.0675 3.04271,0.074 3.04271,0.074 z m -37.37273,-1.26602 h -0.13229 l 1.70451,-1.71979 1.7045,-1.719791 h 0.13229 0.13229 l -1.7045,1.719791 -1.70451,1.71979 z m -0.26179,-0.52916 h -0.13229 l 1.43713,-1.45521 1.43713,-1.455211 h 0.13229 0.1323 l -1.43714,1.455211 -1.43713,1.45521 z m -19.06808,-1.11972 h -0.92604 l 0.46302,-0.121 0.46302,-0.121 0.46302,0.121 0.46302,0.121 z m 39.29063,-0.0479 -4.7625,5.1e-4 2.30172,-0.088 2.30172,-0.088 2.46078,0.0875 2.46078,0.0875 z m 15.47812,-0.0111 h -10.45104 l 5.22552,-0.0777 5.22552,-0.0777 5.22552,0.0777 5.22553,0.0777 z m -42.19109,-2.588338 -10.3287,-0.06295 10.31287,-0.07251 10.31288,-0.07251 1.32879,-1.253608 1.32879,-1.253607 -1.31297,1.389062 -1.31297,1.389063 z m 15.00516,0.0049 -3.77032,0.05804 v -0.210887 -0.210887 l 1.01108,-0.987291 1.01108,-0.987291 3.81757,0.08157 3.81757,0.08157 -3.85071,0.05828 -3.8507,0.05828 -0.89004,0.918286 -0.89003,0.918287 3.6824,0.08201 3.68241,0.08201 z m 22.29114,-2.182548 -15.34583,-6.7e-5 7.75795,-0.07433 7.75795,-0.07433 7.58788,0.07439 7.58789,0.07439 z m -20.10833,-0.51235 -4.23334,-6.09e-4 2.19538,-0.08934 2.19538,-0.08934 2.03795,0.08995 2.03796,0.08995 z m 20.37292,-0.01668 -15.08125,6.8e-5 7.45564,-0.07452 7.45564,-0.07452 7.62561,0.07446 7.62561,0.07445 z m 1.78593,-3.379444 -13.4276,-0.06364 13.27638,-0.07108 13.27638,-0.07109 0.12053,-0.460584 0.12053,-0.460584 0.0307,0.595312 0.0307,0.595313 z m -182.23177,-35.249724 -15.081253,6.9e-5 7.455642,-0.07452 7.455641,-0.07452 7.62561,0.07446 7.62561,0.07446 z m 1.19062,-3.704742 H 88.550027 l 8.135938,-0.07394 8.135935,-0.07394 8.13594,0.07394 8.13594,0.07394 z m 18.7937,0.07988 -1.46349,-0.04448 1.5875,-0.175626 1.5875,-0.175627 -0.25352,-0.04448 -0.25353,-0.04448 1.15725,-1.179152 1.15725,-1.179152 0.2869,0.159634 0.2869,0.159635 -0.26458,-0.284535 -0.26458,-0.284535 -0.92605,-0.104188 -0.92604,-0.104188 11.84011,-0.05059 11.8401,-0.05059 9e-5,0.202056 1e-4,0.202056 -10.38748,-0.072 -10.38747,-0.072 -1.57674,1.593358 -1.57673,1.593357 z m 1.60412,-0.484688 h 0.13229 l 1.03344,-1.058333 1.03343,-1.058333 h -0.13229 -0.13229 l -1.03344,1.058333 -1.03343,1.058333 z m 26.03656,-0.580747 -0.79375,-0.0098 0.46806,-0.12197 0.46805,-0.12197 0.3257,0.131774 0.32569,0.131773 z m -22.25941,-3.223441 -0.44196,0.06487 1.35438,-1.371485 1.35439,-1.371485 19.25671,0.132243 19.25672,0.132242 -19.04178,0.06796 -19.04179,0.06796 -1.12735,1.106414 -1.12736,1.106414 z m 1.29118,-1.211838 1.25677,-1.179567 v -0.0772 -0.0772 h -0.0772 -0.0772 l -1.17956,1.256771 -1.17957,1.256771 z m -7.72665,1.047276 h -0.13229 l 2.10425,-2.116667 2.10425,-2.116666 h 0.1323 0.13229 l -2.10425,2.116666 -2.10426,2.116667 z m -18.66554,-0.917667 -15.345833,-6.6e-5 7.757952,-0.07433 7.757951,-0.07433 7.58788,0.07439 7.58788,0.07439 z m 16.94098,0.07623 -1.33056,-0.04769 1.32291,-0.09839 1.32292,-0.09839 1.71979,-1.639853 1.7198,-1.639852 -1.71215,1.785938 -1.71215,1.785937 z m -3.63005,-2.660835 -0.0818,-0.06269 -14.2875,-0.139198 -14.287503,-0.139197 14.205743,-0.06269 14.20574,-0.06269 0.16352,0.264583 0.16352,0.264584 z m 7.06908,-1.045669 -1.59459,-0.05003 1.5875,-0.09456 1.5875,-0.09456 1.85208,-1.773639 1.85209,-1.773639 -1.84499,1.918229 -1.84499,1.918229 z m 15.53718,-0.01344 -12.50156,0.06347 V 44.53206 44.322565 l 1.25677,-1.179567 1.25677,-1.179568 -1.17697,1.254121 -1.17696,1.254121 12.42175,0.07148 12.42176,0.07148 z m -14.55208,-4.158811 -1.25678,1.179568 1.17957,-1.256771 1.17957,-1.256771 h 0.0772 0.0772 v 0.0772 0.0772 z m 51.33053,-1.798372 -49.78274,0.06752 0.19707,-0.19706 0.19707,-0.197061 49.78274,-0.06752 49.78275,-0.06752 -0.19708,0.19706 -0.19707,0.19706 z m -1.65501,-4.957247 h -59.13438 l 29.56719,-0.06845 29.56719,-0.06845 29.56719,0.06845 29.56718,0.06845 z M 115.59464,33.62905 h -0.0752 l -1.44617,-1.521354 -1.44617,-1.521354 1.52136,1.44617 1.52135,1.44617 v 0.07518 0.07518 z m 59.34185,-0.394561 h -59.13438 l 29.56719,-0.06845 29.56719,-0.06845 29.56719,0.06845 29.56718,0.06845 z M 129.41341,31.2478 h -0.13283 l -1.69892,-1.714148 -1.69891,-1.714148 -4.90803,-0.07799 -4.90803,-0.07799 4.90189,-0.05994 4.90189,-0.05994 1.83789,1.852084 1.83789,1.852083 z m 0.6762,-2.910417 h -0.13229 v -0.250756 -0.250756 l -1.38906,-0.09718 -1.38906,-0.09718 1.52135,-0.04894 1.52135,-0.04894 v 0.396875 0.396875 z M 116.18242,27.27905 h -0.13229 l -1.51307,-1.529026 -1.51307,-1.529027 v -0.190765 -0.190765 h 4.5717 4.57171 l 1.71215,1.785937 1.71215,1.785938 -1.72692,-1.653646 -1.72691,-1.653646 h -4.48251 -4.48252 l 1.57094,1.5875 1.57093,1.5875 z M 100.58857,23.982148 H 88.550027 l 6.019271,-0.07634 6.019272,-0.07633 6.01927,0.07633 6.01927,0.07634 z m 11.29849,-0.936484 h -0.0786 l -1.04588,-1.12448 -1.04589,-1.124479 1.12448,1.045884 1.12448,1.045884 v 0.07859 0.0786 z m 13.23333,-0.793751 h -0.0744 l -1.57921,-1.653645 -1.57922,-1.653646 1.65364,1.579217 1.65365,1.579218 v 0.07443 0.07443 z m 0.26042,-1.058333 h -0.0786 l -1.04588,-1.124479 -1.04589,-1.124479 1.12448,1.045884 1.12448,1.045884 v 0.07859 0.07859 z m -3.96458,-2.645833 h -0.0744 l -1.57922,-1.653646 -1.57922,-1.653646 1.65365,1.579218 1.65364,1.579217 v 0.07443 0.07443 z m 1.32499,0 h -0.0724 l -2.11046,-2.182813 -2.11046,-2.182812 2.18282,2.110459 2.18281,2.11046 v 0.07235 0.07235 z m -19.37453,-3.298643 -14.816663,-7.1e-5 7.493265,-0.07459 7.493268,-0.07459 7.3234,0.07466 7.3234,0.07466 z m 24.48816,-4.109691 h -0.1323 l 1.8379,-1.8520832 1.83789,-1.8520833 h 0.13229 0.13229 l -1.83789,1.8520833 -1.83789,1.8520832 z m 6.61695,-3.7041665 h -0.13229 l 1.57094,-1.5875001 1.57093,-1.5875 h 0.13229 0.13229 l -1.57093,1.5875 -1.57094,1.5875001 z m -24.75511,-0.3906646 -21.166663,-3.64e-5 10.669188,-0.072251 10.669185,-0.072251 10.49748,0.072288 10.49748,0.072288 z m 23.48178,0.081604 -1.12448,0.044477 V 6.9622794 6.7538958 l 1.38906,-1.3129706 1.38906,-1.3129705 -1.29499,1.3708122 -1.295,1.3708121 1.03041,0.1060648 1.03042,0.1060648 z m 125.07273,-0.00175 -1.19966,0.046225 -1.44617,-1.5213542 -1.44617,-1.5213542 1.45521,1.3740608 1.4552,1.3740607 1.19063,0.1010688 1.19062,0.1010689 z m 21.96946,-0.079428 H 260.5292 l 9.85573,-0.072686 9.85573,-0.072686 9.85573,0.072686 9.85573,0.072686 z M 107.3936,5.1237201 l -18.711282,0.062568 1e-6,-0.1984375 V 4.7894131 h 18.440211 18.44021 l 0.74347,-0.7122943 0.74348,-0.7122942 0.4404,-0.064637 0.4404,-0.064637 -0.9128,0.9128007 -0.9128,0.9128006 z m 18.41318,-0.069724 h 0.0828 l 0.7771,-0.8598958 0.77711,-0.8598959 -0.8599,0.7771054 -0.85989,0.7771054 v 0.08279 0.08279 z M 282.7542,4.929243 l -17.19792,-5.38e-5 8.68431,-0.073528 8.68431,-0.073528 8.51361,0.073582 8.51361,0.073582 z m -146.57917,-1.5495674 -1.85208,0.00213 0.85399,-0.106272 0.85399,-0.106272 0.99809,0.1041379 0.99809,0.1041378 z m 12.18078,0.024036 -10.04422,0.062784 1.30302,-1.3229167 1.30303,-1.32291672 h 0.13118 0.13118 l -1.16526,1.18731192 -1.16526,1.1873119 9.77527,0.072821 9.77528,0.072821 z m 62.64577,-0.00115 -41.8547,0.063936 -0.12266,-0.1984375 -0.12267,-0.1984375 26.89612,0.066331 26.89611,0.066331 15.08125,0.068171 15.08125,0.068171 z m 44.22691,0.012115 -1.86112,0.051821 -1.44617,-1.5213542 -1.44617,-1.52135423 1.45521,1.37727483 1.45521,1.3772747 1.85208,0.092258 1.85208,0.092258 z m -121.29951,-2.2606781 -2.25187,2.1802078 2.24312,-2.3151042 2.24312,-2.3151042 12.70584,0.063519 12.70584,0.063519 -12.69709,0.071378 -12.6971,0.071378 z m -5.19113,0.9013883 h -0.39861 l 1.79413,-1.80798613 1.79413,-1.80798617 h 0.0498 0.0498 l -0.0594,0.4045774 -0.0594,0.4045773 -1.38598,1.40340881 -1.38598,1.40340879 z m 0.17921,-0.1763889 h 0.13229 l 1.43714,-1.45520833 1.43713,-1.45520837 h -0.13229 -0.13229 l -1.43714,1.45520837 -1.43713,1.45520833 z m 130.93475,0.2645834 h -0.13165 l -1.7045,-1.71979173 -1.70451,-1.71979167 0.12465,-0.015905 0.12465,-0.015905 1.36407,-0.050241 1.36407,-0.050241 -0.12292,0.1984375 -0.12291,0.1984375 h -1.10058 -1.10058 l 1.57093,1.58750004 1.57094,1.58750006 z m -69.91583,-1.65175231 -49.26303,-0.0642522 17.72708,-0.0678888 17.72708,-0.0678887 31.65861,-0.0662965 31.65861,-0.0662965 -0.12266,0.1984375 -0.12266,0.19843751 z m 56.5703,-0.0415655 -3.96875,-6.7395e-4 2.06262,-0.090393 2.06261,-0.090393 1.90614,0.091067 1.90613,0.0910669 z M 133.5292,-1.107095 l -1.32292,-0.00361 0.73124,-0.1105738 0.73124,-0.1105739 0.59168,0.1141854 0.59167,0.1141855 z m 76.72916,0.075675 h -44.93507 l 0.13081,-0.1308042 0.1308,-0.1308041 44.66896,-0.0045 44.66896,-0.0045 0.13531,0.135309 0.1353,0.1353091 z m 72.23126,-0.1248591 -17.4625,-5.23e-5 8.81664,-0.073427 8.81664,-0.073427 8.64586,0.073479 8.64586,0.073479 z M 136.5918,-1.5605871 h -0.1323 l 1.30303,-1.3229167 1.30302,-1.3229167 h 0.13229 0.1323 l -1.30303,1.3229167 -1.30302,1.3229167 z m 119.49798,0 h -0.0738 l -1.71214,-1.7859375 -1.71215,-1.7859376 1.78594,1.7121484 1.78593,1.7121483 v 0.073789 0.073789 z m 1.32153,-2.6458334 h -0.0752 l -1.44617,-1.5213542 -1.44617,-1.5213542 1.52136,1.4461702 1.52135,1.4461701 v 0.075184 0.075184 z M 133.96612,-4.4710038 h -0.13229 l 0.62141,-0.6614584 0.6214,-0.6614583 h 0.1323 0.13229 l -0.62141,0.6614583 -0.62141,0.6614584 z m 123.70977,-0.2645834 h -0.0752 l -1.44618,-1.5213542 -1.44617,-1.5213542 1.52136,1.4461702 1.52135,1.4461702 v 0.075184 0.075184 z M 118.84482,-9.625959 H 88.550027 l 15.147393,-0.070523 15.1474,-0.070523 15.1474,0.070523 15.14739,0.070523 z m 108.87604,-0.00252 -72.23125,-3.4e-6 36.20311,-0.068038 36.2031,-0.068038 36.02815,0.068042 36.02815,0.068041 z m 58.94905,-2.779926 -13.28221,0.132191 0.20108,-0.20096 0.20109,-0.200961 13.08112,0.06877 13.08113,0.06877 z m -161.55027,-0.529268 h -0.0752 l -1.44617,-1.521354 -1.44617,-1.521354 1.52136,1.44617 1.52135,1.44617 v 0.07518 0.07518 z m 161.60331,-0.122701 -13.22917,-8.7e-5 6.69916,-0.07548 6.69916,-0.07548 6.53001,0.07557 6.53001,0.07557 z m -19.0995,-0.671049 h -0.0828 v -0.08279 -0.08279 l 0.85989,-0.777105 0.8599,-0.777105 -0.77711,0.859895 -0.7771,0.859896 z m -85.27863,-1.187525 h -43.78854 l 21.89427,-0.06922 21.89427,-0.06922 21.89427,0.06922 21.89427,0.06922 z m 60.72897,0.0665 -9.53209,-0.0627 9.52179,-0.07301 9.5218,-0.07301 1.85529,-1.782527 1.85528,-1.782527 -1.84498,1.918229 -1.84499,1.918229 z m 9.14093,-0.995637 h -0.1323 l 1.30303,-1.322917 1.30302,-1.322917 h 0.13229 0.1323 l -1.30303,1.322917 -1.30302,1.322917 z m -126.78467,-2.792865 -0.13203,0.132021 -1.83044,-1.844578 -1.83044,-1.844579 h 0.26513 0.26513 l 1.69733,1.712557 1.69734,1.712557 z m 140.61196,0.147031 h -0.0576 l -0.13541,-0.21909 -0.1354,-0.219091 1.56641,-1.550073 1.56642,-1.550073 0.44738,-0.06566 0.44738,-0.06566 -1.82076,1.834825 -1.82077,1.834825 z m -0.0723,-0.264583 h 0.13229 l 1.57094,-1.5875 1.57093,-1.5875 h -0.13229 -0.13229 l -1.57093,1.5875 -1.57094,1.5875 z m -10.8528,0 h -0.13229 l 2.23728,-2.248959 2.23727,-2.248958 h 0.13229 0.1323 l -2.23728,2.248958 -2.23728,2.248959 z m 1.32652,0 h -0.13229 l 1.70451,-1.719792 1.7045,-1.719792 h 0.13229 0.13229 l -1.7045,1.719792 -1.70451,1.719792 z m -25.54758,-1.058334 h -0.36564 l -0.12264,-0.198437 -0.12264,-0.198438 h 0.61092 0.61093 l -0.12264,0.198438 -0.12264,0.198437 z m -84.07845,-0.529166 h -0.0732 l -1.84499,-1.918229 -1.84498,-1.91823 1.91822,1.844988 1.91823,1.844987 v 0.07324 0.07324 z m -26.01731,-2.910417 h -0.26878 l -0.76046,-0.79375 -0.76046,-0.79375 H 103.83074 88.651089 l 0.163522,-0.264583 0.163521,-0.264584 h 15.011938 15.01194 l 1.03343,1.058334 1.03344,1.058333 z m 149.74158,-0.09895 -0.42718,0.0627 1.01573,-1.040205 1.01574,-1.040205 13.90307,0.06376 13.90308,0.06376 -13.97094,0.07088 -13.97094,0.07088 0.13831,0.223778 0.1383,0.223777 -0.659,0.619093 -0.65899,0.619093 z m 0.21403,-0.16563 h 0.13229 l 0.62141,-0.661459 0.6214,-0.661458 h -0.13229 -0.13229 l -0.62141,0.661458 -0.6214,0.661459 z m -136.64024,-0.529167 h -0.0752 l -1.44617,-1.521354 -1.44617,-1.521354 1.52135,1.44617 1.52135,1.44617 v 0.07518 0.07518 z m 122.85993,0 h -0.13229 l 1.43713,-1.455208 1.43713,-1.455209 h 0.13229 0.1323 l -1.43714,1.455209 -1.43713,1.455208 z m -114.66126,-0.79375 h -0.0786 l -1.04589,-1.124479 -1.04588,-1.124479 1.12448,1.045884 1.12448,1.045884 v 0.07859 0.07859 z m -11.63686,-2.645833 h -0.0738 l -1.71215,-1.785938 -1.71214,-1.785937 1.78593,1.712148 1.78594,1.712148 v 0.07379 0.07379 z m 129.73491,0 h -0.13229 l 1.70451,-1.719792 1.7045,-1.719792 h 0.13229 0.13229 l -1.7045,1.719792 -1.7045,1.719792 z M 108.26149,-31.84874 H 88.550027 l 9.85573,-0.07269 9.855733,-0.07269 9.85573,0.07269 9.85573,0.07269 z m 173.43438,4.92e-4 -18.25625,-4.8e-5 9.21363,-0.07314 9.21363,-0.07314 9.04262,0.07319 9.04262,0.07319 z"
         id="path20" /><path
         style="display:inline;fill:#b9b9b9"
         d="M 117.4634,179.41442 H 88.417736 v -0.39688 -0.39687 h 28.915674 28.91568 l 1.30191,-1.32179 1.30192,-1.32179 -30.28374,-0.0684 -30.283736,-0.0684 30.434176,-0.065 30.43418,-0.065 1.8379,-1.85208 1.83789,-1.85209 h 1.8515 1.85151 l 1.46641,-1.45111 1.46641,-1.45111 32.27564,-0.0124 32.27564,-0.0124 v 0.28113 0.28112 l -32.41857,-0.0123 -32.41857,-0.0123 -1.17246,1.19465 -1.17246,1.19464 h 9.81425 9.81424 l 0.44114,-0.67326 0.44114,-0.67327 0.68573,-0.26072 0.68574,-0.26071 0.88711,0.29277 0.88711,0.29277 0.39769,0.56779 0.3977,0.56779 v 0.75523 0.75524 l -0.7734,0.77339 -0.7734,0.7734 h -0.77842 -0.77842 l -0.6815,-0.53607 -0.6815,-0.53607 -0.16576,-0.52226 -0.16576,-0.52227 h -10.24306 -10.24306 l -1.57093,1.5875 -1.57094,1.5875 h -1.47113 -1.47113 l -1.70451,1.7198 -1.7045,1.71979 z m 34.13265,-3.70417 h 1.00122 l 1.43713,-1.45521 1.43714,-1.45521 h -1.1725 -1.1725 l -1.26586,1.24683 -1.26586,1.24682 v 0.20839 0.20838 z m 27.26322,-1.5875 h 0.66576 l 0.48385,-0.43788 0.48386,-0.43788 v -0.62046 -0.62045 l -0.52917,-0.52916 -0.52917,-0.52917 h -0.47029 -0.4703 l -0.58803,0.41188 -0.58804,0.41188 v 0.69176 0.69177 l 0.43788,0.48386 0.43788,0.48385 z m 63.24075,1.80314 -1.49584,0.0489 -3.32569,-3.19553 -3.3257,-3.19554 -4.43888,0.068 -4.43888,0.068 v -0.37819 -0.37818 l 0.46302,0.022 0.46302,0.0221 4.01216,0.0441 4.01216,0.0441 3.33003,3.29243 3.33003,3.29243 1.45521,0.0982 1.4552,0.0982 z m 30.07085,-0.0786 -27.78126,-2e-5 13.97702,-0.0709 13.97701,-0.0709 13.80424,0.0709 13.80424,0.0709 z m -155.82714,-2.0541 -28.058286,-0.0649 28.081486,-0.0686 28.0815,-0.0686 0.70541,-0.92485 0.70541,-0.92484 h 0.30482 0.30481 l -1.03343,1.05833 -1.03344,1.05834 z m 158.07609,-0.0622 h -25.53229 l 12.76615,-0.0713 12.76614,-0.0713 12.76615,0.0713 12.76615,0.0713 z m -31.04242,-2.78333 h -0.0862 l -0.64143,-0.7276 -0.64144,-0.72761 0.72761,0.64144 0.7276,0.64143 v 0.0862 0.0862 z m -90.86435,-1.31186 -1.25677,1.17957 1.17957,-1.25677 1.17956,-1.25677 h 0.0772 0.0772 v 0.0772 0.0772 z m 92.22724,-0.0111 h -0.11099 l -1.02177,-1.04638 -1.02176,-1.04638 -1.47933,-0.0942 -1.47933,-0.0942 1.60415,-0.05 1.60414,-0.05 0.65805,0.72761 0.65805,0.7276 0.34989,0.46302 0.34989,0.46302 z m -61.35483,-1.32291 h -0.24689 v -0.79375 -0.79375 h 0.22432 0.22432 l 0.0226,0.79375 0.0226,0.79375 z m 90.15868,-0.20474 -26.1119,0.0725 v -0.39688 -0.39687 l 26.1119,0.0724 26.1119,0.0725 0.12599,0.12599 0.12599,0.12599 -0.12599,0.12599 -0.12599,0.12599 z m -62.49203,-0.71646 -27.51666,-2e-5 13.8447,-0.0709 13.8447,-0.0709 13.67197,0.0709 13.67196,0.071 z m 26.77662,-0.6663 h -0.0786 l -1.04588,-1.12448 -1.04589,-1.12448 1.12448,1.04588 1.12448,1.04589 v 0.0786 0.0786 z m -82.14068,-1.31186 -1.25677,1.17957 1.17957,-1.25678 1.17956,-1.25677 h 0.0772 0.0772 v 0.0772 0.0772 z m 64.28714,-3.2941 -0.33735,0.0683 0.2712,-0.13449 0.2712,-0.1345 v -0.35278 -0.35278 l -0.2712,-0.13449 -0.2712,-0.1345 0.33735,0.0684 0.33734,0.0684 v 0.48507 0.48507 z m 2.37956,0.0871 -0.33904,0.0209 -0.14743,-0.3842 -0.14743,-0.38421 0.17135,-0.27725 0.17135,-0.27726 0.31512,0.0209 0.31511,0.0209 -0.33073,0.13345 -0.33073,0.13345 v 0.35278 0.35278 l 0.33073,0.13345 0.33073,0.13345 z m -49.40264,-2.09578 h -0.59666 l -0.31729,-0.38231 -0.31729,-0.38231 0.0865,-0.60455 0.0865,-0.60455 0.71959,-0.25202 0.71959,-0.25202 0.49187,0.44513 0.49187,0.44513 h 62.75156 62.75156 v 0.39688 0.39687 h -62.80614 -62.80615 l -0.32938,0.39688 -0.32937,0.39687 z m 57.07555,-2.9313 -0.33903,0.0209 -0.14894,-0.38815 -0.14895,-0.38815 0.13636,-0.33945 0.13636,-0.33946 0.0209,0.57326 0.0209,0.57327 0.33073,0.13345 0.33073,0.13345 z m 6.88748,-4.73056 -1.25678,1.17957 1.17957,-1.25677 1.17957,-1.25677 h 0.0772 0.0772 v 0.0772 0.0772 z m -78.91199,-1.06939 h -0.26458 v -0.25138 -0.25138 l -1.52135,-0.0955 -1.52136,-0.0955 1.52136,-0.05 1.52135,-0.05 v -0.39687 -0.39688 h 0.26458 0.26459 v 0.79375 0.79375 z m -9.15326,-0.5888 -4.78764,0.0596 -0.50403,-0.59532 -0.50402,-0.59531 0.54301,0.4567 0.54302,0.45671 4.74865,0.079 4.74865,0.079 z m -35.69361,-0.3319 -24.870836,-3e-5 12.521606,-0.0714 12.5216,-0.0714 12.34923,0.0714 12.34923,0.0714 z m 136.21092,0.12695 h -0.0828 v -0.0828 -0.0828 l 0.85989,-0.7771 0.8599,-0.77711 -0.77711,0.8599 -0.7771,0.85989 z m 29.02137,-0.12619 h -21.56354 l 10.78177,-0.0722 10.78177,-0.0722 10.78177,0.0722 10.78178,0.0722 z M 141.24536,148.1934 h -0.0935 l -0.47888,-0.52916 -0.47889,-0.52917 h 0.24194 0.24195 l 0.33047,0.52917 0.33047,0.52916 z m 36.01046,-1.05833 h -1.02047 l -0.64943,-0.64943 -0.64943,-0.64943 v -0.9501 -0.95009 l 0.64943,-0.64944 0.64943,-0.64943 h 1.04684 1.04684 l 0.68498,0.81405 0.68498,0.81405 v 0.24429 0.24428 h 25.96156 25.96157 l -0.32938,0.39687 -0.32938,0.39688 H 205.19888 179.4344 v 0.25428 0.25427 l -0.57905,0.53948 -0.57906,0.53947 z m -0.006,-0.79375 h 0.68787 l 0.48385,-0.43788 0.48386,-0.43788 v -0.53348 -0.53347 l -0.43788,-0.48385 -0.43789,-0.48386 h -0.73384 -0.73384 l -0.41578,0.41578 -0.41577,0.41577 v 0.62366 0.62366 l 0.41577,0.41578 0.41578,0.41577 z m -37.79403,0 h -0.13409 l -0.89624,-0.92469 -0.89624,-0.92468 -24.62181,-0.0689 -24.621806,-0.0689 24.618696,-0.0648 24.6187,-0.0648 1.03344,1.05834 1.03343,1.05833 z m 114.63133,0 h -0.13229 l 0.6214,-0.66146 0.62141,-0.66146 h 0.13229 0.13229 l -0.6214,0.66146 -0.62141,0.66146 z m -18.1394,-0.79375 h -4.49138 l 0.51359,-0.38846 0.51359,-0.38846 3.84891,-0.008 3.84891,-0.008 1.03343,-1.05833 1.03344,-1.05834 -3.82401,-0.0569 -3.82401,-0.0569 3.175,-0.0899 3.175,-0.0899 1.16028,0.16836 1.16027,0.16835 -1.41582,1.43363 -1.41582,1.43363 z m -79.00274,-0.89889 h -3.83646 l 1.91823,-0.0913 1.91823,-0.0913 1.91823,0.0913 1.91823,0.0913 z m 8.20208,0 h -3.83645 l 1.91823,-0.0913 1.91822,-0.0913 1.91823,0.0913 1.91823,0.0913 z m -13.56633,-1.48236 h -0.1038 l -0.17639,-0.17639 -0.17639,-0.17639 v -0.22048 -0.22049 h 3.82084 3.82084 l 0.12322,0.19844 0.12321,0.19843 -3.83595,-0.08 -3.83595,-0.08 0.17209,0.27845 0.17209,0.27845 z M 119.1094,142.50939 H 88.285444 l 15.411976,-0.0704 15.41198,-0.0704 15.41198,0.0704 15.41198,0.0704 z m 152.5323,3.7e-4 -28.31042,2e-5 14.06879,-0.0708 14.06879,-0.0708 14.24163,0.0708 14.24163,0.0708 z m -121.08017,-0.40159 h -0.13229 l -0.71096,-0.74209 -0.71096,-0.74208 v -0.18396 -0.18396 l 33.13906,0.0651 33.13907,0.0651 -33.05529,0.0682 -33.05528,0.0682 0.75947,0.79272 0.75947,0.79272 z m 92.73758,-0.004 -0.497,-0.004 2.14763,-2.11267 2.14763,-2.11268 h 26.36123 26.36122 v 0.39688 0.39687 h -26.18879 -26.18879 l -1.82307,1.71979 -1.82307,1.7198 z M 120.43232,140.39324 H 93.047944 l 13.692186,-0.071 13.69219,-0.071 13.69219,0.071 13.69219,0.071 z m 178.77455,-6.05059 -0.1808,0.18079 v -0.30868 -0.30868 l -13.29531,-0.0636 -13.29531,-0.0636 13.21344,-0.0712 13.21344,-0.0712 0.26267,0.26267 0.26267,0.26268 z m -15.39434,-3.61157 -15.34583,0.13229 -1.47595,-0.078 -1.47595,-0.078 -1.42543,-1.44335 -1.42543,-1.44336 -30.833,-0.0645 -30.83299,-0.0645 30.63392,-0.13396 30.63391,-0.13395 -1.56499,-1.54864 -1.565,-1.54864 -4.52891,0.0934 -4.5289,0.0934 9e-5,-0.49609 9e-5,-0.49609 0.82682,0.16536 0.82682,0.16537 3.60495,0.002 3.60495,0.002 1.93291,1.90252 1.93291,1.90251 1.24209,-0.0246 1.24209,-0.0246 -1.13783,0.17067 -1.13783,0.17068 1.27718,1.25477 1.27719,1.25478 16.79398,0.0681 16.79398,0.0681 z m -9.73588,-2.11666 h -0.0786 l -1.04588,-1.12448 -1.04589,-1.12448 1.12448,1.04588 1.12448,1.04589 v 0.0786 0.0786 z m 12.6463,-0.12215 -12.43542,-1e-4 6.30208,-0.076 6.30207,-0.076 6.13334,0.0761 6.13335,0.0761 z M 271.17103,125.704 h -0.0738 l -1.71215,-1.78594 -1.71215,-1.78594 1.78594,1.71215 1.78593,1.71215 v 0.0738 0.0738 z m 1.80628,-2.64583 h -0.35295 l -0.14488,-0.37753 -0.14487,-0.37754 0.33935,-0.28163 0.33934,-0.28163 0.19596,0.19614 0.19595,0.19614 12.87658,0.13727 12.87658,0.13727 -12.75054,0.0612 -12.75053,0.0612 -0.16352,0.26458 -0.16352,0.26459 z m -20.12103,-0.91483 -11.1125,-1.2e-4 5.64021,-0.077 5.6402,-0.077 5.4723,0.0771 5.47229,0.0771 z m 13.49375,0.0454 -1.32291,-0.004 0.73124,-0.11057 0.73124,-0.11058 0.59167,0.11419 0.59168,0.11418 z m 16.19012,-2.89567 -16.4547,-0.0609 5.95312,-0.0708 5.95313,-0.0708 10.62434,-0.0667 10.62434,-0.0668 -0.12277,0.19844 -0.12277,0.19844 z m -35.63699,-0.85625 h -14.4198 l 7.2099,-0.0748 7.2099,-0.0748 7.20989,0.0748 7.2099,0.0748 z m -83.62184,-3.84532 h -0.47787 l -0.41577,-0.41577 -0.41578,-0.41578 v -0.26308 -0.26308 l 0.2739,-0.51177 0.27389,-0.51177 h 0.79274 0.79275 l 0.15229,0.39687 0.1523,0.39688 h 67.30815 67.30815 v 0.39687 0.39688 h -67.30406 -67.30406 l -0.32938,0.39687 -0.32938,0.39688 z m 101.82496,-3.43941 -9.97499,0.13212 0.20195,-0.20175 0.20195,-0.20175 9.77305,0.0696 9.77304,0.0696 z m -3.90143,-2.64601 h -0.13229 l 1.83789,-1.85208 1.83789,-1.85208 h 0.13229 0.13229 l -1.83789,1.85208 -1.83789,1.85208 z m -9.67149,-0.91318 -9.525,-1.6e-4 4.84584,-0.0785 4.84583,-0.0785 4.67917,0.0787 4.67916,0.0787 z m -13.16247,-2.72217 -25.28387,0.0635 0.12264,-0.19844 0.12264,-0.19844 h 25.29619 25.29619 l -0.13496,0.13497 -0.13497,0.13496 z m 31.48487,-0.12829 -4.69635,0.0595 v -0.20609 -0.20608 l 1.78593,-1.71214 1.78594,-1.71215 -1.70573,1.77946 -1.70574,1.77947 4.61615,0.0793 4.61616,0.0793 z m -21.76198,-2.16748 -5.02708,-4.6e-4 2.59343,-0.0867 2.59343,-0.0867 2.43365,0.0871 2.43365,0.0871 z m -14.06292,-1.4981 -1.01833,-0.0209 -0.3363,-0.13531 -0.33629,-0.1353 -0.41473,-0.801991 -0.41472,-0.801988 0.16807,-0.895902 0.16808,-0.895901 0.68341,-0.44779 0.68341,-0.447789 h 0.92601 0.92601 l 0.62717,0.729129 0.62717,0.729129 v 0.382121 0.382121 h 10.21886 10.21885 l -0.32937,0.396875 -0.32938,0.396875 h -9.78333 -9.78332 l -0.74147,0.793751 -0.74148,0.79375 z m 0.28002,-0.66265 0.55373,-0.16364 0.33073,-0.420732 0.33073,-0.420729 v -0.610888 -0.610889 l -0.52916,-0.529167 -0.52917,-0.529166 h -0.52917 -0.52916 l -0.52917,0.529166 -0.52917,0.529167 v 0.642255 0.642255 l 0.70303,0.553008 0.70304,0.553 z m 26.71713,-0.903961 h -4.44866 l 0.42423,-0.424234 0.42423,-0.424234 3.77651,0.04025 3.7765,0.04025 1.13785,-1.116723 1.13786,-1.116724 0.6942,-0.03039 0.6942,-0.03039 -1.58413,1.531097 -1.58413,1.531097 z m 7.43247,-3.583085 -0.69535,0.03044 2.2322,-2.192427 2.23221,-2.192428 h 13.39827 13.39826 v 0.396875 0.396876 h -13.15638 -13.15638 l -1.77874,1.765113 -1.77874,1.765113 z M 103.68247,57.176914 H 88.638222 l 0.110211,-0.330729 0.110211,-0.330729 14.656336,-0.06841 14.65634,-0.06841 1.40432,-1.386794 1.40433,-1.386795 -16.21497,-0.135346 -16.214973,-0.135345 16.411263,-0.06309 16.41126,-0.06309 1.83789,-1.852083 1.8379,-1.852084 h 1.86821 1.86822 l 1.43713,-1.455208 1.43714,-1.455208 h 19.10957 19.10956 l 0.15638,-0.253028 0.15638,-0.253028 0.38841,0.149044 0.3884,0.149043 v 0.376872 0.376871 l -0.41466,0.15912 -0.41466,0.15912 -0.29972,-0.299716 -0.29971,-0.299715 H 150.5981 131.65722 l -1.30302,1.322917 -1.30303,1.322916 h 9.86287 9.86286 l 0.65153,-0.774298 0.65153,-0.774298 0.76728,-0.168525 0.76729,-0.168524 0.77579,0.401179 0.7758,0.401179 0.32587,0.786722 0.32587,0.786723 -0.18672,0.614817 -0.18672,0.614817 -0.54488,0.595313 -0.54488,0.595312 h -1.02424 -1.02424 l -0.64943,-0.649432 -0.64943,-0.649431 v -0.408902 -0.408902 h -10.39318 -10.39318 l -1.57093,1.587501 -1.57094,1.5875 h -1.33829 -1.3383 l -1.83789,1.852083 -1.83789,1.852083 z m 20.20751,-3.96875 h 1.19062 l 1.43714,-1.455208 1.43713,-1.455209 h -1.19063 -1.19062 l -1.43713,1.455209 -1.43714,1.455208 z m 27.38369,-1.5875 h 0.87864 l 0.41188,-0.588038 0.41188,-0.588038 v -0.387097 -0.387096 l -0.57529,-0.612366 -0.57528,-0.612365 h -0.45374 -0.45373 l -0.59155,0.479009 -0.59156,0.479009 v 0.710802 0.710801 l 0.33006,0.39769 0.33005,0.397689 z m -33.75662,-1.185882 -1.05348,1.028692 v -0.266377 -0.266378 l 0.92208,-0.893713 0.92208,-0.893713 0.13139,0.131398 0.1314,0.131398 z m 1.98923,-2.204113 -0.52917,0.275148 1.83754,-1.874655 1.83754,-1.874655 0.13133,0.131333 0.13134,0.131332 -1.43971,1.468174 -1.43971,1.468174 z m 4.7625,-3.300263 -1.32292,-0.0036 0.73124,-0.110574 0.73125,-0.110574 0.59167,0.114185 0.59168,0.114186 z m 15.21354,0.07568 h -12.78819 l 0.14239,-0.142392 0.14239,-0.142391 12.51848,0.01507 12.51848,0.01507 0.12732,0.127324 0.12733,0.127324 z m -32.80833,-3.03543 H 88.814611 l 8.929688,-0.0733 8.929691,-0.0733 8.92968,0.0733 8.92969,0.0733 z m 48.55104,-0.0021 -25.66458,-2.5e-5 12.91853,-0.07125 12.91854,-0.07125 12.74605,0.07128 12.74604,0.07128 z m -40.74584,-6.35 -25.664579,-2.5e-5 12.918539,-0.07125 12.91853,-0.07125 12.74605,0.07128 12.74605,0.07128 z m 120.16669,-1.667551 -0.13636,0.339457 -0.0209,-0.573263 -0.0209,-0.573264 -0.33073,-0.133452 -0.33073,-0.133453 0.33903,-0.02089 0.33904,-0.02089 0.14894,0.388147 0.14895,0.388146 z m -133.66044,-3.618952 -12.170829,-1.01e-4 6.169706,-0.07619 6.169703,-0.07619 6.00113,0.07629 6.00113,0.07629 z m 47.80783,0.06047 -18.96824,-0.06148 6.74687,-0.07036 6.74688,-0.07036 12.3441,-0.0666 12.34411,-0.0666 -0.12274,0.198438 -0.12274,0.198437 z M 130.3542,28.33733 h -0.1323 V 27.940455 27.54358 l -1.65364,-0.05003 -1.65365,-0.05003 1.58115,-0.09725 1.58115,-0.09725 0.20074,-0.315741 0.20073,-0.315741 0.004,0.859895 0.004,0.859896 z m -9.39981,-0.853693 -4.90189,0.05994 -1.83789,-1.852083 -1.83789,-1.852083 h 0.16935 0.16935 l 1.64595,1.714087 1.64596,1.714088 4.92447,0.07805 4.92448,0.07805 z m -21.556446,-0.589797 -10.583333,1.3e-4 5.207899,-0.0776 5.207899,-0.0776 5.375431,0.07747 5.37544,0.07747 z m 51.990626,-1.589883 h -13.62604 l 6.81302,-0.07528 6.81302,-0.07528 6.81302,0.07528 6.81302,0.07528 z m -39.71419,-2.258293 h -0.13409 l -0.89469,-0.923083 -0.89468,-0.923082 -10.600447,-0.07219 -10.600446,-0.07219 10.595783,-0.06306 10.59578,-0.06306 1.03344,1.058333 1.03343,1.058334 z m 17.88607,-0.902013 -4.49792,-5.53e-4 2.32809,-0.08837 2.3281,-0.08837 2.16982,0.08893 2.16982,0.08893 z m 25.92916,-0.01774 -20.90208,3.7e-5 10.36521,-0.07236 10.36522,-0.07236 10.53687,0.07232 10.53687,0.07232 z m -50.27083,-3.437992 -16.404169,-5.9e-5 8.287308,-0.07385 8.287311,-0.07385 8.11686,0.07391 8.11685,0.07391 z m 21.82812,0.01671 h -4.36562 l 2.18281,-0.08914 2.18281,-0.08914 2.18282,0.08914 2.18281,0.08914 z M 108.20244,11.139413 H 88.682319 v -0.396875 -0.396875 h 19.389771 19.38976 l 1.43554,-1.4535924 1.43554,-1.4535927 -20.89145,-0.069387 -20.891453,-0.069388 21.041473,-0.06452 21.04147,-0.06452 1.83789,-1.8520833 1.83789,-1.8520834 h 1.73593 1.73593 l 1.43713,-1.4552084 1.43713,-1.45520836 h 49.23477 49.23477 l 0.29444,-0.29444626 0.29445,-0.29444626 0.28764,0.1777695 0.28763,0.1777695 V 0.68837131 1.0540165 l -0.28763,0.1777695 -0.28764,0.1777695 -0.29445,-0.2944463 -0.29444,-0.29444622 h -49.10339 -49.10338 l -1.30303,1.32291672 -1.30302,1.3229167 h 9.97807 9.97808 V 3.1898865 2.9132767 l 0.64943,-0.6494319 0.64943,-0.6494318 h 0.9501 0.95009 l 0.63867,0.638672 0.63867,0.6386719 0.17044,0.679062 0.17043,0.679062 -0.50127,0.8582925 -0.50127,0.8582925 -0.86308,0.2475278 -0.86308,0.2475278 -0.90504,-0.431586 -0.90505,-0.431586 -0.16792,-0.6690516 -0.16792,-0.6690515 h -10.36449 -10.3645 l -1.57093,1.5875 -1.57094,1.5875001 h -1.47059 -1.47058 l -1.83789,1.8520833 -1.8379,1.8520832 z m 24.87277,-3.9687499 h 1.00123 l 1.43713,-1.4552083 1.43713,-1.4552084 h -1.1725 -1.17249 l -1.26586,1.2468247 -1.26586,1.2468247 v 0.2083836 0.2083837 z m 27.50763,-1.5915515 0.59531,0.00405 0.52917,-0.5291667 0.52917,-0.5291667 V 3.9956631 3.4664964 L 161.70732,2.9373297 161.17815,2.408163 h -0.50752 -0.50753 l -0.43878,0.1683768 -0.43879,0.1683767 -0.24435,0.6426969 -0.24435,0.6426968 0.30423,0.5779889 0.30423,0.577989 0.29112,0.194386 0.29112,0.194386 z m 117.77971,1.8561349 h -21.54546 l -3.29935,-3.3072918 -3.29935,-3.30729172 h -3.85366 -3.85366 l -0.3175,0.31750002 -0.3175,0.3175 -0.29971,-0.2997154 -0.29972,-0.29971539 0.15912,-0.41465963 0.15912,-0.41465962 h 0.38957 0.38956 l 0.16352,0.26458334 0.16352,0.26458334 h 3.89096 3.89096 l 3.29393,3.30185686 3.29393,3.3018568 21.28863,0.00776 21.28862,0.00776 0.12997,0.129967 0.12997,0.129967 z M 107.33544,5.193325 l -18.520829,-4.69e-5 9.345958,-0.073047 9.345961,-0.073047 9.17487,0.073094 9.17488,0.073094 z M 282.7542,5.2320166 265.55628,5.273788 264.69639,4.27183 263.83649,3.269872 V 3.1036008 2.9373297 l 18.05781,0.06337 18.05782,0.06337 -17.9403,0.1350679 -17.94029,0.1350679 0.88524,0.8579324 0.88524,0.8579325 17.05505,0.070088 17.05506,0.070088 z m -174.62501,-2.1556285 -19.314579,-4.33e-5 9.742936,-0.072788 9.742933,-0.072787 9.57165,0.072831 9.57165,0.072831 z m 21.69584,0.034823 -2.11667,-0.00175 1.13147,-0.1016218 1.13148,-0.1016217 0.98519,0.1033691 0.9852,0.1033691 z m 131.62437,0.03813 -1.99022,0.052572 -2.24311,-2.31510419 -2.24312,-2.31510421 2.24896,2.17237162 2.24895,2.17237158 1.98438,0.090161 1.98438,0.090161 z m -152.79104,-0.8668719 -19.843749,-4.11e-5 10.007583,-0.072625 10.007586,-0.072625 9.83616,0.072666 9.83617,0.072666 z m 21.43125,0.050019 -1.32291,-0.00361 0.73124,-0.1105739 0.73124,-0.1105739 0.59167,0.1141854 0.59168,0.1141855 z m 149.62188,-0.039306 -19.97604,0.011134 1.43237,-0.095697 1.43237,-0.095697 -1.6969,-1.77060848 -1.6969,-1.77060852 1.85684,1.78412057 1.85684,1.78412053 18.38373,0.071051 18.38373,0.071051 z M 131.56138,2.1435797 h -0.13229 l 1.57094,-1.58750006 1.57093,-1.58750004 h 0.1323 0.13229 l -1.57094,1.58750004 -1.57093,1.58750006 z m 132.83276,-2.38125008 h -0.20487 l -0.17639,-0.1763889 -0.17639,-0.17638889 V -1.0755176 -1.5605871 h 0.47625 0.47625 l 0.26265,0.2626489 0.26265,0.2626489 17.31891,0.0700297 17.31892,0.0700297 -17.51304,0.0641964 -17.51303,0.0641964 -0.16352,0.26458334 -0.16352,0.26458334 z m -99.0461,-0.59531252 -0.10224,0.46302085 -0.13176,-1.01914865 -0.13176,-1.0191487 0.30935,0.4230606 0.30935,0.4230607 44.28911,0.0677 44.28911,0.0677 -44.36446,0.065367 -44.36445,0.065367 z m -57.74801,-0.3237847 -18.785419,-4.56e-5 9.478285,-0.072958 9.478284,-0.072958 9.30713,0.073004 9.30714,0.073004 z m 25.59844,-0.080096 -1.12448,0.087135 v -0.2054293 -0.2054294 l 1.52135,0.030692 1.52136,0.030692 -0.39688,0.087602 -0.39687,0.087602 z m 15.80885,-0.1813869 h -12.56771 l 6.28386,-0.075957 6.28385,-0.075957 6.28385,0.075957 6.28386,0.075957 z m 105.52466,0.1222465 h -0.30868 l 0.18282,-0.18282 0.18282,-0.18282 -1.26321,-1.3385342 -1.2632,-1.3385342 1.38906,1.3129705 1.38907,1.3129705 v 0.2083837 0.2083837 z m 3.48368,-0.072063 h -1.19063 l 0.59531,-0.1146622 0.59532,-0.1146622 0.59531,0.1146622 0.59531,0.1146622 z M 135.26427,-1.5605871 h -0.13229 l 1.70451,-1.7197917 1.7045,-1.7197917 h 0.13229 0.1323 l -1.70451,1.7197917 -1.7045,1.7197917 z M 111.1719,-4.5973969 H 88.814611 l 11.178646,-0.071967 11.178643,-0.071967 11.17865,0.071967 11.17865,0.071967 z m 167.61355,3.119e-4 -21.16667,-3.65e-5 10.66919,-0.072251 10.66919,-0.072251 10.49748,0.072288 10.49748,0.072288 z m -148.42181,-1.7905121 -0.009,-0.06451 -20.70365,-0.069394 -20.703648,-0.069394 v -0.2597941 -0.2597941 l 20.713128,-0.069323 20.71312,-0.069322 -3e-5,0.4630209 -3e-5,0.4630208 z m 150.00931,-0.2000734 h -19.44688 v -0.2645834 -0.2645833 h 19.44688 19.44687 v 0.2645833 0.2645834 z M 154.58118,-8.9689206 h -0.79274 l -0.2927,-0.546909 -0.29269,-0.5469094 0.42177,-0.643716 0.42178,-0.643716 h 0.49067 0.49067 l 0.32938,0.396875 0.32938,0.396875 h 72.06656 72.06656 v 0.396875 0.3968754 h -72.07065 -72.07065 l -0.1523,0.396875 -0.15229,0.396875 z m 118.17269,-3.7897394 -0.12475,0.482448 -0.0307,-0.447406 -0.0307,-0.447406 0.28764,-0.17777 0.28763,-0.177769 0.30768,0.310121 0.30768,0.310122 -0.43988,-0.167394 -0.43988,-0.167394 z m -88.55697,-0.04441 h -59.13437 l 29.56719,-0.06845 29.56718,-0.06845 29.56719,0.06845 29.56719,0.06845 z m 72.09896,0.01024 -9.78958,-1.49e-4 4.97824,-0.07825 4.97825,-0.07825 4.81134,0.0784 4.81134,0.0784 z m -116.68125,-5.171929 h -0.13229 v -0.251958 -0.251958 l -1.65365,-0.09394 -1.65364,-0.09394 1.63424,-0.05098 1.63425,-0.05098 0.121,-0.463021 0.121,-0.463021 0.0307,0.859896 0.0307,0.859896 z m -9.39271,-0.638991 h -4.89479 l 2.4474,-0.08731 2.44739,-0.08731 2.4474,0.08731 2.4474,0.08731 z m 58.34063,-1.871309 -41.80417,-10e-6 20.98906,-0.06936 20.98906,-0.06936 20.81511,0.06937 20.81511,0.06937 z m 50.93229,0.0183 h -5.15937 l 2.57969,-0.0865 2.57968,-0.0865 2.57969,0.0865 2.57969,0.0865 z m 5.86089,-1.476751 h -0.13229 l 0.6214,-0.661459 0.62141,-0.661458 h 0.13229 0.13229 l -0.6214,0.661458 -0.62141,0.661459 z m -86.47952,-0.281355 -0.47616,-0.01677 -0.58146,-0.234162 -0.58146,-0.234162 -0.42751,-0.826712 -0.42751,-0.826713 0.16939,-0.771214 0.16939,-0.771214 0.67682,-0.532391 0.67683,-0.532391 h 0.90238 0.90239 l 0.64943,0.649432 0.64943,0.649432 v 0.408902 0.408901 h 43.42407 43.42406 l -0.32937,0.396875 -0.32938,0.396875 h -43.07686 -43.07686 l -0.16887,0.532069 -0.16887,0.532068 -0.76186,0.393973 -0.76186,0.393973 z m 0.0338,-0.776979 h 0.64226 l 0.553,-0.703031 0.55301,-0.703032 -0.16365,-0.553739 -0.16364,-0.553739 -0.42073,-0.330729 -0.42073,-0.33073 h -0.61088 -0.61089 l -0.52917,0.529167 -0.52917,0.529167 v 0.529166 0.529167 l 0.52917,0.529167 0.52917,0.529166 z m -54.22038,-0.124297 -16.139583,-6e-5 8.154971,-0.07396 8.154972,-0.07396 7.98461,0.07402 7.98461,0.07402 z m 21.69584,0.01231 -5.55626,-3.93e-4 2.85866,-0.0852 2.85865,-0.0852 2.6976,0.08559 2.6976,0.08559 z m 138.50937,3.93e-4 h -5.42396 l 2.71198,-0.08575 2.71198,-0.08575 2.71198,0.08575 2.71198,0.08575 z m 20.37292,-0.01197 h -14.68437 l 7.34218,-0.07469 7.34219,-0.07469 7.34219,0.07469 7.34219,0.07469 z m -32.76555,-0.934761 h -4.34091 l 0.32938,-0.396875 0.32937,-0.396875 h 3.88266 3.88266 l 1.03343,-1.058333 1.03344,-1.058334 h 0.53257 0.53258 l -1.43713,1.455209 -1.43713,1.455208 z m -117.86096,-0.79375 h -0.0786 l -1.04588,-1.124479 -1.04589,-1.124479 1.12448,1.045884 1.12448,1.045884 v 0.07859 0.07859 z m 151.42026,-0.123118 h -13.89062 l 6.94531,-0.07513 6.94531,-0.07512 6.94531,0.07512 6.94532,0.07513 z m -154.05986,-2.522715 h -0.0724 l -2.11046,-2.182813 -2.11046,-2.182812 2.18281,2.110459 2.18282,2.11046 v 0.07235 0.07235 z m 127.74767,0 h -0.5306 l 2.10425,-2.116667 2.10425,-2.116667 h 18.19631 18.19631 v 0.396875 0.396875 h -18.06545 -18.06546 l -1.7045,1.719792 -1.70451,1.719792 z"
         id="path19" /><path
         style="display:inline;fill:#999999"
         d="m 246.62415,179.14983 h -0.13014 l -2.37512,-2.44739 -2.37511,-2.4474 0.67851,0.59531 0.67851,0.59532 h 0.36988 0.36988 l -1.30303,-1.32292 -1.30302,-1.32292 h 0.12359 0.1236 l 2.38,2.4474 2.38,2.4474 -0.93864,-0.8599 -0.93864,-0.8599 h -0.37599 -0.376 l 1.57093,1.5875 1.57094,1.5875 z m 27.00192,-0.39182 h -26.32604 l 13.16302,-0.0711 13.16302,-0.0711 13.16302,0.0711 13.16303,0.0711 z m -24.67791,-5.16443 h -0.0717 l -2.37574,-2.44739 -2.37573,-2.4474 2.4474,2.37574 2.44739,2.37573 v 0.0717 0.0717 z m -101.49985,-2.91041 h -0.13229 l 0.89755,-0.92604 0.89756,-0.92605 h 0.13229 0.13229 l -0.89756,0.92605 -0.89755,0.92604 z m 5.19703,-2.23232 -0.85989,0.77711 0.76269,-0.84485 0.76269,-0.84486 -1.42415,-0.0984 -1.42415,-0.0984 1.52135,-0.0489 1.52136,-0.0489 v 0.21509 0.21508 z m -36.04948,-0.41352 H 88.417736 v -0.26458 -0.26458 h 28.178124 28.17813 v 0.26458 0.26458 z m 50.73386,-0.59263 -12.50157,0.0635 v -0.21509 -0.21508 l 0.8599,-0.7771 0.8599,-0.77711 -0.77457,0.85725 -0.77457,0.85725 12.41623,0.0715 12.41624,0.0715 z m 71.76823,0.0119 -0.79375,-0.01 0.46805,-0.12197 0.46806,-0.12197 0.32569,0.13178 0.3257,0.13177 z m -2.04326,-2.59426 h -0.14091 l -0.3275,-0.39461 -0.32749,-0.39461 -14.32313,-0.0707 -14.32313,-0.0707 14.31264,-0.0638 14.31264,-0.0638 0.47889,0.52917 0.47889,0.52916 z m -84.85429,-0.26458 h -0.13229 l 1.43713,-1.45521 1.43713,-1.45521 h 0.13229 0.13229 l -1.43713,1.45521 -1.43713,1.45521 z m 89.07132,-0.26458 h -0.0752 l -1.44617,-1.52136 -1.44617,-1.52135 1.52135,1.44617 1.52136,1.44617 v 0.0752 0.0752 z m -62.49877,-0.39081 -21.69584,3e-5 10.76201,-0.0721 10.76201,-0.0721 10.93382,0.0721 10.93383,0.0721 z m 48.73398,-7.23912 -0.14116,0.35389 -0.0209,-0.47864 -0.0209,-0.47864 -0.30546,0.18879 -0.30547,0.18879 0.20304,-0.32852 0.20303,-0.32852 0.26449,0.26449 0.26448,0.26448 z m 29.0296,0.22159 h -0.12498 l -0.15668,-0.40828 -0.15667,-0.40829 0.16498,-0.16498 0.16498,-0.16497 v 0.45658 0.45659 l 0.30546,-0.18879 0.30546,-0.18878 -0.18878,0.30546 -0.18879,0.30546 z m -112.90367,-0.26458 h -0.0828 l -0.7771,-0.8599 -0.77711,-0.85989 0.8599,0.7771 0.85989,0.77711 v 0.0828 0.0828 z m 107.12237,-1.39561 -1.33853,1.26308 1.4341,-1.50902 1.4341,-1.50901 0.22386,0.13835 0.22386,0.13836 -0.1631,0.2639 -0.1631,0.26391 -0.15633,-0.15633 -0.15632,-0.15633 z m -67.21978,-1.1129 -26.45834,-3e-5 13.31547,-0.0711 13.31547,-0.0711 13.14286,0.0711 13.14287,0.0711 z m 43.14373,0.0646 -9.54165,-0.0627 9.51407,-0.073 9.51408,-0.073 0.80467,-0.7242 0.80468,-0.7242 -0.7771,0.85989 -0.77711,0.8599 z m -70.33519,-0.73105 h -0.0717 l -2.37573,-2.4474 -2.37574,-2.44739 2.4474,2.37573 2.44739,2.37574 v 0.0717 0.0717 z m 42.93417,-2.77468 h -39.29063 l 19.64531,-0.0696 19.64532,-0.0696 19.64531,0.0696 19.64531,0.0696 z m 45.2775,0.0691 -4.92855,-0.0598 4.87509,-0.0787 4.87509,-0.0786 0.41658,-0.32458 0.41658,-0.32459 -0.36313,0.46303 -0.36312,0.46302 z m -90.06588,-0.20479 h -0.0738 l -1.71215,-1.78593 -1.71214,-1.78594 1.78593,1.71215 1.78594,1.71214 v 0.0738 0.0738 z m -41.41526,-0.32709 -24.789076,-0.0625 8.863542,-0.0695 8.863544,-0.0694 16.04823,-0.0665 16.04824,-0.0665 -0.12271,0.19844 -0.1227,0.19844 z m 165.31405,-0.0637 h -21.56354 l 10.78177,-0.0722 10.78177,-0.0722 10.78177,0.0722 10.78178,0.0722 z m -64.15201,-0.99689 -0.009,-0.0648 -24.40781,-0.0689 -24.40781,-0.0689 v -0.26049 -0.26048 l 24.41728,-0.0689 24.41728,-0.0689 -2e-5,0.46303 -2e-5,0.46302 z m 8.76404,-0.14459 -5.13489,0.077 0.12724,-0.33072 0.12724,-0.33073 h 4.85087 4.85087 l 0.15678,0.25368 0.15679,0.25369 z m -57.92888,-0.31983 h -0.0752 l -1.44617,-1.52135 -1.44617,-1.52136 1.52135,1.44617 1.52135,1.44617 v 0.0752 0.0752 z m 64.83196,-1.97794 -1.91823,1.84432 2.36226,-2.4332 2.36227,-2.4332 0.19076,0.1179 0.19077,0.1179 0.81232,-0.92518 0.81233,-0.92518 4.04298,0.004 4.04297,0.004 0.32122,0.20412 0.32122,0.20412 -4.24969,-0.10815 -4.24968,-0.10815 -1.56164,1.54534 -1.56163,1.54534 v -0.2492 -0.24921 z m 24.91669,-1.28015 -1.17034,0.97222 1.04589,-1.10603 1.04588,-1.10602 22.10516,0.0646 22.10516,0.0646 -21.98071,0.0692 -21.9807,0.0692 z m -97.47867,-0.0252 -4.49792,-5.6e-4 2.32809,-0.0884 2.3281,-0.0884 2.16982,0.0889 2.16982,0.0889 z m 8.33437,0.006 h -3.30729 l 1.65365,-0.0939 1.65364,-0.0939 1.65365,0.0939 1.65364,0.0939 z M 152.16021,144.754 h -0.1323 l -1.16851,-1.19063 -1.16851,-1.19062 h 0.1323 0.13229 l 1.16851,1.19062 1.16851,1.19063 z m 0.99765,0 h -0.0828 l -0.7771,-0.8599 -0.77711,-0.85989 0.8599,0.7771 0.85989,0.77711 v 0.0828 0.0828 z m 7.73958,-0.12232 -0.33021,0.20408 0.16221,-0.26247 0.16221,-0.26246 -0.98518,-0.96201 -0.98518,-0.962 -4.22938,-0.0804 -4.22938,-0.0804 4.24439,-0.0589 4.24439,-0.0589 1.13817,1.15971 1.13818,1.15971 z m -41.92033,-2.38686 -30.691666,-1e-5 15.432386,-0.0705 15.43238,-0.0705 15.25929,0.0705 15.25928,0.0705 z m 152.79688,3.7e-4 h -28.17813 l 14.08907,-0.0708 14.08906,-0.0708 14.08906,0.0708 14.08907,0.0708 z m -154.38438,-4.23347 -29.104166,2e-5 14.465616,-0.0707 14.46562,-0.0707 14.63855,0.0707 14.63855,0.0707 z m 168.27501,-3.43476 -13.49375,-8e-5 6.83151,-0.0753 6.83151,-0.0753 6.66224,0.0754 6.66224,0.0754 z m -13.64133,-0.14171 H 271.891 l -1.64601,-1.66077 -1.646,-1.66076 v -0.19132 -0.19132 h 0.4713 0.47131 l 1.57921,1.65365 1.57922,1.65364 -1.59517,-1.52135 -1.59517,-1.52135 h -0.38156 -0.38156 l 1.7045,1.71979 1.70451,1.71979 z m -4.02865,-3.96875 h -0.0752 l -1.44617,-1.52135 -1.44617,-1.52136 1.52135,1.44617 1.52135,1.44617 v 0.0752 0.0752 z m 1.11878,0 h -0.13284 l -1.70451,-1.71979 -1.7045,-1.71979 h -1.5614 -1.56139 l 0.36313,0.46302 0.36312,0.46302 -0.50368,-0.39688 -0.50369,-0.39687 -0.15777,0.0325 -0.15778,0.0325 -0.26458,-0.0994 -0.26458,-0.0994 -30.29479,-0.0665 -30.2948,-0.0665 30.44032,-0.065 30.44031,-0.065 0.3175,0.3175 0.3175,0.3175 v -0.3175 -0.3175 h 1.66074 1.66074 l 1.8379,1.85209 1.83789,1.85208 z m 5.28403,-1.85208 h -0.14672 l -3.31449,-3.3073 -3.3145,-3.30729 h 0.16187 0.16186 l 3.29935,3.30729 3.29935,3.3073 z m -33.0611,-6.14023 -0.51861,0.32388 0.004,-0.86214 0.004,-0.86214 0.2293,0.36196 0.22931,0.36196 0.28526,0.1763 0.28525,0.1763 z m 23.1616,-0.26135 -0.79375,-0.01 0.46805,-0.12197 0.46806,-0.12197 0.32569,0.13178 0.3257,0.13177 z m -17.72709,-2.98219 -14.2875,7e-5 7.05893,-0.0749 7.05893,-0.0749 7.22857,0.0749 7.22857,0.0749 z m 19.3717,-0.14123 h -0.0752 l -1.44617,-1.52136 -1.44617,-1.52135 1.52136,1.44617 1.52135,1.44617 v 0.0752 0.0752 z m 3.20608,-2.11667 h -0.22048 v -0.39688 -0.39687 h 0.22048 0.22049 v 0.39687 0.39688 z m 7.07495,-7.42749 -1.41137,1.39385 -0.15169,-0.24544 -0.15168,-0.24543 1.41137,-1.39384 1.41138,-1.39384 0.15168,0.24543 0.15169,0.24543 z m -1.45471,1.07749 h 0.13229 l 1.30303,-1.32292 1.30302,-1.32291 h -0.13229 -0.13229 l -1.30302,1.32291 -1.30303,1.32292 z m 15.59053,0.26458 h -8.46667 v -0.26458 -0.26458 h 8.46667 8.46666 v 0.26458 0.26458 z m -38.89375,-2.50084 h -9.6573 l 4.82865,-0.0785 4.82865,-0.0785 4.82864,0.0785 4.82865,0.0785 z m 22.90183,-3.58457 h -0.26339 l 1.57921,-1.6067 1.57922,-1.6067 0.52917,-0.27546 0.52917,-0.27546 -1.84499,1.88216 -1.84499,1.88216 z m 4.50923,-4.49792 h -0.26637 l 1.03343,-1.058335 1.03344,-1.058333 9.14057,0.06256 9.14058,0.06256 -9.01339,0.07315 -9.01339,0.07315 -0.89424,0.922625 -0.89425,0.922623 z M 152.48717,45.535247 h -0.22432 l -0.0226,-0.79375 -0.0226,-0.79375 h 0.24689 0.24689 v 0.79375 0.79375 z m -34.83298,-0.661458 h -0.61092 l 0.12264,-0.198437 0.12264,-0.198438 h 0.36564 0.36565 l 0.12264,0.198438 0.12264,0.198437 z m 6.76496,-3.042708 h -0.1323 l 1.43714,-1.455209 1.43713,-1.455208 h 0.13229 0.13229 l -1.43713,1.455208 -1.43713,1.455209 z m 30.67359,-0.656307 h -25.79688 l 12.89844,-0.07124 12.89844,-0.07124 12.89844,0.07124 12.89843,0.07124 z M 105.08649,39.325473 H 88.814611 l 8.135938,-0.07394 8.135941,-0.07394 8.13593,0.07394 8.13594,0.07394 z m 9.50295,-2.850867 -25.554343,0.06481 -0.176389,-0.176389 -0.176389,-0.176389 0.0041,-0.286632 0.0041,-0.286632 0.209179,0.329399 0.209178,0.329398 25.517504,0.06882 25.5175,0.06881 z m 1.26978,-3.110192 h -0.0752 l -1.44618,-1.521354 -1.44617,-1.521355 1.52136,1.446171 1.52135,1.44617 v 0.07518 0.07518 z m 52.14757,-1.915635 -0.0818,-0.06355 -19.31458,-0.137481 -19.31459,-0.137481 19.23282,-0.06355 19.23283,-0.06355 0.16352,0.264583 0.16352,0.264583 z m -38.11916,-0.994782 h -0.0697 l -3.70062,-3.770313 -3.70063,-3.770312 3.77032,3.700622 3.77031,3.700622 v 0.06969 0.06969 z m 7.81513,-4.939614 -0.24469,0.151229 -1.83215,-1.889897 -1.83214,-1.889897 0.42122,0.313044 0.42122,0.313044 0.12307,-0.123077 0.12308,-0.123077 1.53254,1.548701 1.53254,1.548702 z m -0.14771,-0.08747 h 0.0752 v -0.07518 -0.07519 l -1.52136,-1.44617 -1.52135,-1.44617 1.44617,1.521354 1.44617,1.521355 z m -8.32533,-4.023797 -3.90261,-0.05505 3.78607,-0.143391 3.78607,-0.143392 -0.9315,-0.901819 -0.93151,-0.90182 0.1533,-0.248033 0.15329,-0.248033 1.23774,1.219124 1.23773,1.219125 21.32762,-0.06927 21.32761,-0.06927 -0.12268,0.198438 -0.12268,0.198437 h -21.23042 -21.23043 l -0.3175,-0.3175 -0.3175,-0.3175 v 0.3175 0.3175 z m 3.82221,-0.47412 h 0.0804 v -0.08039 -0.08039 l -0.99219,-0.911798 -0.99218,-0.911798 0.91179,0.992187 0.9118,0.992188 z m 130.44673,-9.789584 h -0.0732 l -1.84498,-1.918229 -1.84499,-1.9182292 1.91823,1.8449874 1.91823,1.8449878 v 0.07324 0.07324 z m 0.26265,-0.79375 h -0.0752 l -1.44617,-1.521354 -1.44617,-1.5213542 1.52136,1.4461702 1.52135,1.44617 v 0.07518 0.07518 z m -3.83646,-3.1749999 h -0.47206 l -1.44617,-1.5213542 -1.44617,-1.5213542 1.46353,1.3890626 1.46352,1.3890625 h 0.38092 0.38091 l -1.71215,-1.7859376 -1.71215,-1.7859375 1.78594,1.7121483 1.78594,1.7121484 v 0.2060809 0.2060808 z m 5.45965,-2.1166667 h -0.10107 l -3.17087,-3.2280763 -3.17086,-3.2280764 2.36087,2.21964411 2.36088,2.21964409 0.91106,1.0084323 0.91106,1.0084322 z M 161.72502,-0.50225372 h -0.24689 l 0.0226,-0.79374998 0.0226,-0.7937501 h 0.22432 0.22431 v 0.7937501 0.79374998 z m 3.33969,-0.33072918 -0.121,0.46302085 V -1.2960037 -2.2220454 l 0.121,0.4630208 0.121,0.4630209 z m 90.4374,-0.514601 -0.79375,-0.0098 0.46806,-0.1219697 0.46806,-0.1219698 0.32569,0.1317736 0.32569,0.1317736 z M 133.41498,-4.4710038 h -0.13229 l 1.43713,-1.4552084 1.43713,-1.4552084 h 0.13229 0.1323 l -1.43714,1.4552084 -1.43713,1.4552084 z m 52.7663,-2.6458334 H 136.5719 v -0.2645834 -0.2645833 h 49.60938 49.60938 v 0.2645833 0.2645834 z m 60.57397,0 h -7.78959 v -0.2645834 -0.2645833 h 7.95311 7.95312 l -0.16353,0.2645833 -0.16352,0.2645834 z m -157.879724,-2.8431346 -0.233493,0.3295929 0.10833,-0.3968751 0.108329,-0.396875 30.140458,-0.0017 30.14046,-0.0017 -30.01529,0.06899 -30.015301,0.06899 z m 29.497974,-2.2048372 -0.33904,0.02089 -0.15667,-0.408286 -0.15668,-0.408286 0.16498,-0.164978 0.16498,-0.164977 v 0.418923 0.418924 l 0.33073,0.133452 0.33073,0.133452 z m 6.78992,-0.243695 h -0.11897 l -1.43713,-1.455208 -1.43713,-1.455209 H 105.55855 88.946902 v -0.264583 -0.264583 l 16.602608,0.03101 16.6026,0.03101 1.56514,1.688784 1.56514,1.688784 z m 142.12937,-1.529738 -1.47192,1.397266 1.57921,-1.653556 1.57922,-1.653555 h 15.42026 15.42026 v 0.26863 0.268631 l -15.52755,-0.01234 -15.52755,-0.01234 z m -128.61144,-1.116095 h -0.13242 l -3.55879,-3.566126 -3.55878,-3.566126 -4.77192,-0.07825 -4.77191,-0.07825 4.76604,-0.05979 4.76605,-0.05979 3.69708,3.704167 3.69707,3.704167 z m 0.19571,-0.79375 h -0.0761 l -1.31297,-1.389063 -1.31297,-1.389062 1.38906,1.31297 1.38906,1.312971 v 0.07609 0.07609 z m 59.47505,-2.775712 -56.62083,6e-6 28.22313,-0.06855 28.22313,-0.06855 28.3977,0.06855 28.39771,0.06854 z m 62.70625,0.01959 -5.02708,-4.62e-4 2.59343,-0.08666 2.59343,-0.08666 2.43366,0.08713 2.43365,0.08713 z m 25.45664,-0.09293 -13.30482,0.07093 v -0.396876 -0.396875 l 13.30482,0.07093 13.30482,0.07093 v 0.255016 0.255017 z m -182.48685,-0.06136 H 88.946902 v -0.264584 -0.264583 h 15.081248 15.08125 v 0.264583 0.264584 z m 31.94223,0 h -0.0724 l -2.11046,-2.182813 -2.11046,-2.182812 2.18281,2.110459 2.18282,2.11046 v 0.07235 0.07235 z m 111.73213,-4.960938 -3.30932,3.241146 1.71036,-1.785937 1.71036,-1.785938 h -0.22319 -0.22319 l 0.32696,-0.393962 0.32696,-0.393962 0.20106,0.124264 0.20106,0.124263 1.37144,-1.450093 1.37144,-1.450093 4.15221,0.0041 4.1522,0.0041 -0.39687,0.25648 -0.39688,0.25648 -3.83263,0.0041 -3.83264,0.0041 z m -100.88628,2.844271 h -0.0744 l -1.57922,-1.653646 -1.57922,-1.653646 1.65365,1.579218 1.65364,1.579218 v 0.07443 0.07443 z m -41.35492,-1.387007 -16.426213,0.06409 -0.176389,-0.176388 -0.176389,-0.176389 0.0041,-0.286632 0.0041,-0.286632 0.208742,0.328691 0.208741,0.328692 16.389818,0.07024 16.38981,0.07024 z m 159.03664,-0.04523 -4.7625,5.04e-4 2.30172,-0.08799 2.30172,-0.08799 2.46078,0.08749 2.46078,0.08748 z m 20.24062,-0.01453 h -15.21354 l 7.60677,-0.07442 7.60677,-0.07442 7.60677,0.07442 7.60678,0.07442 z m -141.8305,-2.521983 h -0.12624 l -1.0844,-1.084402 -1.0844,-1.084403 -3.93879,0.02856 -3.93879,0.02855 -0.39688,-0.263017 -0.39687,-0.263017 4.24327,-0.0041 4.24328,-0.0041 1.30303,1.322916 1.30302,1.322917 z m -32.77889,-2.116667 H 88.946902 v -0.264583 -0.264583 h 21.018758 21.01876 l 0.16353,0.264583 0.16352,0.264583 z m 169.64846,-0.0041 -20.04219,-0.0041 0.39687,-0.25648 0.39688,-0.25648 19.64531,-0.0041 19.64531,-0.0041 v 0.264583 0.264583 z"
         id="path18" /><path
         style="display:inline;fill:#797979"
         d="m 273.41999,179.41442 h -26.39983 l -1.7045,-1.71979 -1.70451,-1.7198 h 0.34857 0.34857 l 1.65751,1.45521 1.6575,1.45521 h 26.09826 26.09826 v 0.26458 0.26459 z m -29.96406,-3.97167 -0.38923,-0.003 -1.45521,-1.30854 -1.45521,-1.30855 -1.22437,-0.0114 -1.22438,-0.0115 -0.32937,-0.39687 -0.32938,-0.39688 h 1.69369 1.69368 l 1.70451,1.7198 1.7045,1.71979 z m -58.09362,-0.65327 -0.76853,0.1407 -0.66146,-0.34531 -0.66146,-0.34531 -0.35451,-0.73937 -0.35452,-0.73937 0.16281,-0.64868 0.16281,-0.64868 0.52243,-0.52244 0.52244,-0.52244 h 0.99946 0.99947 l 0.58803,0.41188 0.58804,0.41188 v 0.38187 0.38187 h 24.70615 24.70614 l 0.32938,0.39688 0.32938,0.39687 h -24.90978 -24.90978 l -0.23047,0.60619 -0.23048,0.60619 -0.3835,0.31828 -0.38351,0.31828 z m -0.41763,-0.66673 h 0.66577 l 0.48385,-0.43788 0.48385,-0.43788 v -0.66577 -0.66576 l -0.43788,-0.48386 -0.43788,-0.48385 h -0.66576 -0.66577 l -0.48385,0.43788 -0.48386,0.43788 v 0.66577 0.66576 l 0.43789,0.48386 0.43788,0.48385 z m -39.44034,-5.87233 -0.41643,0.0808 -0.18683,-0.30229 -0.18682,-0.30229 0.27666,-0.27666 0.27666,-0.27666 0.43667,0.16756 0.43666,0.16757 -0.11007,0.33059 -0.11008,0.33059 z m -25.32757,-3.71774 -31.891326,-0.0651 31.875706,-0.0683 31.8757,-0.0683 1.46633,-1.45103 1.46633,-1.45103 32.60538,-0.0692 32.60538,-0.0693 v 0.26458 0.26459 l -32.61593,-0.0692 -32.61593,-0.0692 -1.44015,1.45826 -1.44015,1.45827 z m 150.39756,9e-5 -29.37779,0.065 -1.44617,-1.4653 -1.44617,-1.4653 -8.13612,0.0762 -8.13611,0.0762 -1e-5,-0.26459 v -0.26458 l 8.13612,0.0762 8.13612,0.0762 1.4617,1.44402 1.46171,1.44402 29.36225,0.0685 29.36226,0.0685 z m -121.36857,-2.11616 -0.0661,-0.0645 -30.42708,-0.13453 -30.427086,-0.13453 30.493246,-0.13173 30.49324,-0.13172 -1e-5,0.33072 -2e-5,0.33073 z m 122.83281,-0.32762 h -27.91354 l 13.95677,-0.0709 13.95677,-0.0709 13.95677,0.0709 13.95678,0.0709 z m -44.78073,-5.22947 -0.0661,-0.0653 -41.63215,-0.0678 -41.63216,-0.0678 -1.65509,-1.45309 -1.65509,-1.45308 -26.16588,-0.0687 -26.165886,-0.0688 26.279536,-0.0648 26.27954,-0.0648 1.52735,1.45684 1.52735,1.45685 41.71239,-0.0678 41.71239,-0.0678 v 0.33072 l -1e-5,0.33073 z m 12.43529,-0.14191 -9.98816,0.0749 v -0.26458 l 1e-5,-0.26458 9.98838,0.0751 9.98839,0.0751 1.44594,-1.46413 1.44593,-1.46412 23.68925,0.0647 23.68925,0.0647 -23.67399,0.069 -23.67398,0.069 -1.46144,1.44499 -1.46143,1.44498 z m -102.85664,-0.0574 h -0.26459 v -0.39687 -0.39688 h 0.26459 0.26458 v 0.39688 0.39687 z m 74.54472,-1.32292 h -0.68756 l -0.52031,-0.66145 -0.5203,-0.66146 H 183.4046 157.15615 l -3.57861,-3.43959 -3.57861,-3.43958 H 119.20834 88.417736 v -0.39688 -0.39687 l 30.890104,0.0116 30.89011,0.0116 3.67559,3.56031 3.6756,3.5603 h 26.05969 26.05969 l 0.63697,-0.6873 0.63697,-0.6873 0.71628,0.17261 0.71629,0.17262 0.33073,0.43296 0.33073,0.43297 v 0.56988 0.56988 l -0.48386,0.43788 -0.48385,0.43788 z m 0.0678,-0.52916 h 0.22678 l 0.41525,-0.41525 0.41525,-0.41525 -0.27336,-0.51079 -0.27337,-0.5108 h -0.46694 -0.46694 l -0.3175,0.3175 -0.3175,0.3175 v 0.19277 0.19277 l 0.41577,0.41577 0.41577,0.41578 z m -51.41137,-3.77032 -0.121,0.46302 v -0.92604 -0.92604 l 0.121,0.46302 0.121,0.46302 z m -21.46573,-0.19843 h -0.38126 l -0.16352,-0.26459 -0.16352,-0.26458 0.16352,-0.26458 0.16352,-0.26459 h 0.38126 0.38126 v 0.52917 0.52917 z m 100.52606,-0.0516 -0.79375,-0.01 0.46805,-0.12197 0.46806,-0.12197 0.32569,0.13178 0.3257,0.13177 z m 17.2668,8e-5 -0.41642,0.0808 -0.18683,-0.30229 -0.18682,-0.30229 0.27666,-0.27666 0.27666,-0.27666 0.43667,0.16756 0.43666,0.16756 -0.11008,0.33059 -0.11007,0.33059 z m -6.2724,-0.74225 h -0.13229 l 1.83789,-1.85209 1.83789,-1.85208 h 0.13229 0.13229 l -1.83789,1.85208 -1.83789,1.85209 z m -35.32045,-0.79375 h -0.38126 l -0.16353,-0.26459 -0.16352,-0.26458 0.16352,-0.26458 0.16353,-0.26459 h 0.38126 0.38126 v 0.52917 0.52917 z m 2.87826,-0.0826 -0.28112,0.0936 -0.1819,-0.1819 -0.1819,-0.1819 v -0.35278 -0.35278 h 0.54857 0.54856 l -0.0855,0.4411 -0.0856,0.44109 z m -52.24695,-0.45161 -0.12401,-0.005 -1.62731,-1.5825 -1.6273,-1.5825 h 0.18038 0.18037 l 1.57094,1.5875 1.57093,1.5875 z m 62.60842,0.005 h -0.24667 l 0.11913,-0.0661 0.11912,-0.0661 3.29841,-3.175 3.29841,-3.175 -3.17086,3.24114 -3.17087,3.24115 z M 160.835,144.48932 h -0.0786 l -1.04588,-1.12448 -1.04589,-1.12448 1.12448,1.04588 1.12448,1.04589 v 0.0786 0.0786 z m 55.13584,-3.70417 h -0.25727 l -0.16352,-0.26458 -0.16352,-0.26459 -61.16928,-0.0645 -61.169286,-0.0645 61.647916,-0.13396 61.64792,-0.13395 0.0988,0.0547 0.0988,0.0547 -0.15667,0.40828 -0.15667,0.40829 z m 69.62001,-6.35 H 272.1556 l -1.70451,-1.71979 -1.7045,-1.71979 h 0.39827 0.39827 l 1.43713,1.4552 1.43713,1.45521 h 13.30435 13.30435 v 0.26459 0.26458 z m -17.00852,-3.96875 h -0.39827 l -1.43713,-1.45521 -1.43714,-1.45521 h -1.25019 -1.25019 l -0.16353,-0.26458 -0.16352,-0.26458 h 1.54462 1.54461 l 1.7045,1.71979 1.70451,1.71979 z m -70.01332,-0.79375 h -0.90239 l -0.64943,-0.64943 -0.64943,-0.64943 v -0.9501 -0.95009 l 0.64943,-0.64944 0.64943,-0.64943 h 1.02424 1.02424 l 0.57529,0.61237 0.57529,0.61236 v 0.31368 0.31368 h 30.41146 30.41147 l 0.16352,0.26458 0.16353,0.26458 h -30.57499 -30.57499 v 0.50997 0.50996 l -0.69714,0.54837 -0.69714,0.54837 z m 0.0848,-0.52917 h 0.458 l 0.61236,-0.57528 0.61237,-0.57529 v -0.61534 -0.61534 l -0.52917,-0.52916 -0.52916,-0.52917 h -0.64226 -0.64225 l -0.54837,0.69714 -0.54837,0.69714 v 0.37322 0.37322 l 0.64943,0.64943 0.64943,0.64943 z m 84.0914,-10.11825 -16.4132,0.0641 -1.44617,-1.46521 -1.44617,-1.46521 -8.26841,0.0761 -8.2684,0.0761 -1e-5,-0.26458 v -0.26459 l 8.26841,0.0761 8.26841,0.0761 1.46081,1.44325 1.46082,1.44324 16.39856,0.0702 16.39856,0.0703 z m 1.46425,-2.44088 H 269.2605 l 7.47448,-0.0746 7.47448,-0.0746 7.47448,0.0746 7.47448,0.0746 z m -19.51316,-5.63969 -10.12044,0.0749 v -0.26458 l 1e-5,-0.26458 10.12077,0.075 10.12077,0.075 1.44584,-1.46402 1.44584,-1.46403 10.72466,0.0631 10.72467,0.0631 -10.71104,0.0723 -10.71104,0.0723 -1.4598,1.44344 -1.45979,1.44344 z m -51.99994,-5.68927 -0.45357,0.45357 v -0.90714 -0.90715 l 0.45357,0.45357 0.45357,0.45358 z m 68.99114,-0.44659 -0.31825,0.26412 -0.30295,-0.36503 -0.30295,-0.36503 0.37658,-0.31254 0.37658,-0.31253 0.17147,0.27743 0.17146,0.27743 8.64949,0.0623 8.64949,0.0624 -8.57634,0.0737 -8.57633,0.0737 z m -34.18917,-1.81014 -5.62259,0.0834 1.9e-4,-0.31511 1.9e-4,-0.31511 0.28764,-0.17777 0.28764,-0.17777 0.29444,0.29444 0.29445,0.29445 h 4.91199 4.91199 l 3.29935,-3.307293 3.29935,-3.307292 19.84773,0.06442 19.84772,0.06442 -19.7095,0.06958 -19.7095,0.06958 -3.30925,3.288358 -3.30926,3.288357 z M 117.6415,45.799831 h -0.35295 l -0.16352,-0.264584 -0.16352,-0.264583 -14.07345,-0.06062 -14.073449,-0.06062 14.552079,-0.137816 14.55209,-0.137816 0.18688,0.07462 0.18688,0.07462 -0.14904,0.388402 -0.14905,0.388402 z m -11.09077,-4.032989 -17.736119,-0.06424 17.721329,-0.06995 17.72132,-0.06995 1.46657,-1.451266 1.46657,-1.451266 50.0668,-0.06819 50.0668,-0.06819 v 0.264583 0.264584 l -50.07944,-0.06817 -50.07944,-0.06817 -1.43913,1.457236 -1.43914,1.457237 z m 2.50451,-7.873262 h -0.26459 v -0.529166 -0.529167 h 0.26459 0.26458 v 0.529167 0.529166 z m 125.21406,-0.06556 -0.19844,-0.06556 -59.12729,-0.06732 -59.1273,-0.06732 -1.46719,-1.451886 -1.4672,-1.451885 -12.03363,-0.07165 -12.033639,-0.07165 12.047579,-0.06338 12.04758,-0.06338 1.43883,1.456929 1.43883,1.456928 59.34016,-0.06787 59.34016,-0.06787 -1e-5,0.330729 v 0.330729 z m -64.90186,-1.52194 h -0.76875 l -0.43341,-0.661458 -0.4334,-0.661458 h -19.22169 -19.22168 l -3.56452,-3.571875 -3.56453,-3.571875 H 105.55318 88.946902 v -0.396875 -0.396875 h 16.738438 16.73844 l 3.69708,3.704166 3.69708,3.704167 h 19.11969 19.11969 v -0.387566 -0.387566 l 0.51177,-0.273892 0.51178,-0.273893 h 0.50555 0.50555 l 0.43789,0.483855 0.43788,0.483854 v 0.687872 0.687872 l -0.41578,0.415774 -0.41577,0.415773 z m 0.41493,-0.700088 0.3507,-0.134576 0.14445,-0.376418 0.14444,-0.376418 -0.15778,-0.411187 -0.15779,-0.411188 -0.69154,0.08046 -0.69155,0.08046 -0.0972,0.511678 -0.0972,0.511679 0.45136,0.330045 0.45136,0.330045 z m -59.07349,-4.124044 -0.46302,-0.06163 -10.715624,-0.14132 -10.715625,-0.14132 10.596563,-0.06163 10.596566,-0.06163 0.29444,-0.294447 0.29445,-0.294446 0.28764,0.17777 0.28763,0.177769 v 0.38126 0.38126 z m 55.03334,-1.589602 -0.46302,-0.06373 -13.76829,-0.07089 -13.76829,-0.07089 -1.70984,-1.783606 -1.70983,-1.783607 1.72691,1.653646 1.72691,1.653646 h 13.63215 13.63215 l 0.29445,-0.294447 0.29444,-0.294446 0.28764,0.17777 0.28764,0.177769 v 0.38126 0.38126 z M 133.3734,21.19358 h -0.13369 l -1.02711,-1.051855 -1.02711,-1.051856 -4.11981,-0.07984 -4.11982,-0.07985 4.1121,-0.05892 4.1121,-0.05893 1.16851,1.190625 1.16851,1.190625 z m -27.89004,-2.241198 -16.668749,-5.7e-5 8.419643,-0.07374 8.419646,-0.07374 8.2491,0.0738 8.24911,0.0738 z m 176.27156,-7.812969 h -18.06491 l -1.8379,-1.8520832 -1.83789,-1.8520833 h 0.39882 0.39882 l 1.43713,1.4552083 1.43713,1.4552082 h 18.06685 18.06685 v 0.396875 0.396875 z M 259.85015,6.9060798 h -0.39918 l -1.30302,-1.3229167 -1.30303,-1.3229167 h -1.23432 -1.23432 l -0.32937,-0.396875 -0.32938,-0.396875 h 1.56139 1.5614 l 1.7045,1.7197917 1.70451,1.7197917 z M 166.43224,6.3769131 h -0.53229 l -0.7734,-0.7733974 -0.7734,-0.7733975 V 3.9956631 3.1612079 l 0.7734,-0.7733975 0.7734,-0.7733974 h 0.53229 0.5323 l 0.68193,0.259271 0.68194,0.2592711 0.3038,0.6667706 0.3038,0.6667707 h 41.99388 41.99389 l 0.32938,0.396875 0.32937,0.396875 h -42.22664 -42.22665 l -0.41634,0.8051168 -0.41634,0.8051167 -0.66601,0.2532166 -0.66601,0.2532166 z m 0.28133,-0.7978015 0.64063,0.00405 0.48385,-0.4378821 0.48385,-0.4378822 V 4.0416352 3.3758716 L 167.88402,2.8920173 167.44614,2.408163 h -0.59881 -0.59881 l -0.43879,0.1683768 -0.43878,0.1683767 -0.24435,0.6426969 -0.24435,0.6426968 0.30423,0.5779889 0.30423,0.577989 0.29112,0.194386 0.29112,0.194386 z m -39.74843,-6.14486455 -0.31511,-0.0634992 -18.91771,-0.13758487 -18.917709,-0.13758488 18.590569,-0.0634992 18.59057,-0.0634992 0.53365,-0.3307292 0.53365,-0.3307292 0.23905,0.3842423 0.23905,0.38424231 -0.13044,0.21107023 -0.13045,0.21107024 z m -15.78495,-3.70529045 -22.365579,-0.064623 22.351149,-0.069184 22.35115,-0.069184 1.59364,-1.5198393 1.59365,-1.5198392 -1.57922,1.6536458 -1.57922,1.6536459 z m 167.59698,8.33e-5 -21.17495,0.06454 -1.57094,-1.5875 -1.57093,-1.5875001 h 0.26534 0.26533 l 1.43559,1.4536374 1.43558,1.4536374 21.04496,0.069323 21.04497,0.069323 z m -42.44173,-2.5812938 h -0.24897 l -0.16352,-0.2645833 -0.16352,-0.2645834 0.16352,-0.2645833 0.16352,-0.2645833 h 0.24897 0.24897 v 0.5291666 0.5291667 z m 2.1672,-0.066146 -0.33073,0.110243 v -0.5732639 -0.5732639 l 0.33073,0.1102431 0.33072,0.1102431 v 0.3527777 0.3527778 z m 5.02708,-5.2910811 -0.19844,-0.06556 -59.01094,-0.06731 -59.01094,-0.06731 -1.57865,-1.653065 -1.57864,-1.653065 1.59517,1.521354 1.59518,1.521355 h 58.92826 58.92827 v -0.264584 -0.264583 h 0.26458 0.26459 v 0.529167 0.529166 z m 12.56757,-0.140021 -9.98815,0.07329 1.3e-4,-0.463021 1.4e-4,-0.463021 h 0.26458 0.26458 v 0.264583 0.264584 h 9.71577 9.71576 l 1.59518,-1.518506 1.59517,-1.518506 -1.5875,1.643654 -1.5875,1.643654 z m -137.78164,-0.059 h -0.26458 v -0.396875 -0.396875 h 0.26458 0.26459 v 0.396875 0.396875 z m 109.26017,-1.322917 h -0.42417 l -0.62141,-0.661458 -0.62141,-0.661458 H 182.3613 138.81377 l -3.70062,-3.711941 -3.70062,-3.71194 -4.7625,0.01854 -4.7625,0.01854 -16.47031,-0.01077 -16.470318,-0.01077 v -0.264583 -0.264584 h 21.370138 21.37014 l 3.56684,3.570288 3.56684,3.570287 43.65875,0.0016 43.65876,0.0016 0.33047,-0.529167 0.33047,-0.529167 h 0.87088 0.87088 l 0.3175,0.3175 0.3175,0.3175 v 0.858122 0.858122 L 228.58803,-14.14328 228,-13.731421 Z m -0.028,-0.79375 h 0.50508 l 0.34778,-0.419053 0.34778,-0.419053 -0.27807,-0.440843 -0.27808,-0.440842 h -0.4715 -0.47149 l -0.26938,0.427058 -0.26938,0.427057 0.16609,0.432838 0.1661,0.432838 z m -85.97726,-3.66731 -0.2281,0.360019 -0.004,-0.859896 -0.004,-0.859896 h 0.10144 0.10143 l 0.13072,0.499878 0.13072,0.499877 z m -21.71197,-0.355974 -0.43532,0.08383 -0.17257,-0.279233 -0.17258,-0.279233 0.16352,-0.264583 0.16353,-0.264583 h 0.53295 0.53295 l -0.0886,0.459982 -0.0886,0.459983 z m 135.64347,0.003 -0.79375,-0.0098 0.46806,-0.12197 0.46806,-0.121969 0.32569,0.131773 0.32569,0.131774 z m 17.26407,0.0012 -0.46302,0.08917 v -0.567968 -0.567967 l 0.46302,0.08917 0.46302,0.08917 v 0.389628 0.389629 z m -6.80475,-0.214214 h -0.13229 l 3.16673,-3.175 3.16672,-3.175 h 0.1323 0.13229 l -3.16673,3.175 -3.16673,3.175 z m -34.97475,-1.378037 -0.43835,0.08442 -0.17258,-0.279233 -0.17257,-0.279233 h -41.73005 -41.73005 l -1.71215,-1.785937 -1.71215,-1.785938 1.7301,1.656812 1.73011,1.656811 42.32302,-0.0096 42.32302,-0.0096 v 0.333501 0.333502 z m 2.80399,0.05512 h -0.38126 v -0.264583 -0.264584 l 0.0661,-0.171084 0.0661,-0.171085 5.40177,0.05711 5.40177,0.05711 3.32948,-3.259466 3.32948,-3.259467 -3.30332,3.373438 -3.30332,3.373437 h -4.9493 -4.94929 l -0.16352,0.264584 -0.16352,0.264583 z m -91.15546,-4.7625 h -0.1323 l -1.16851,-1.190625 -1.16851,-1.190625 h 0.1323 0.13229 l 1.16851,1.190625 1.16851,1.190625 z m 116.57107,-2.12477 h -0.52917 l 0.39688,-0.25648 0.39687,-0.25648 h 0.52917 0.52917 l -0.39688,0.25648 -0.39687,0.25648 z"
         id="path17" /><path
         style="display:inline;fill:#777777"
         d="m 119.30784,171.73271 -30.890104,0.009 v -0.39687 -0.39688 l 29.434894,-0.0226 29.4349,-0.0225 1.32292,0.0386 1.32291,0.0386 3.57188,-3.44441 3.57187,-3.44441 21.59926,-0.0113 21.59926,-0.0113 0.4334,-0.66145 0.43341,-0.66146 h 0.76875 0.76875 l 0.41577,0.41577 0.41578,0.41577 v 0.76876 0.76875 l -0.6723,0.4405 -0.67229,0.44051 -0.65805,-0.29983 -0.65805,-0.29982 -0.15317,-0.39917 -0.15317,-0.39916 h -21.52541 -21.5254 l -3.64785,3.56308 -3.64785,3.56308 z m 82.65409,-6.65338 0.56947,-0.0847 0.29161,-0.47852 0.2916,-0.47852 -0.51846,-0.38494 -0.51847,-0.38495 -0.25638,0.0855 -0.25638,0.0855 -0.25945,0.41131 -0.25945,0.41131 0.17322,0.4514 0.17322,0.45139 z m 43.09116,6.66217 h -1.91487 l -2.10892,-2.05052 -2.10892,-2.05052 0.45297,-0.092 0.45298,-0.092 1.75912,1.74563 1.75911,1.74564 h 1.48232 1.48232 l 0.32937,0.39688 0.32938,0.39687 z m 28.47309,0 h -26.29365 l -0.32937,-0.39687 -0.32938,-0.39688 h 26.62302 26.62302 v 0.39688 0.39687 z m -124.21423,-2.91042 h -0.13229 l 0.62141,-0.66145 0.62141,-0.66146 h 0.13229 0.13229 l -0.62141,0.66146 -0.6214,0.66145 z m 30.81477,-0.52916 h -0.10143 l -0.13072,-0.49988 -0.13072,-0.49988 0.2281,-0.36002 0.2281,-0.36001 0.004,0.85989 0.004,0.8599 z m 58.96128,-1.07005 -0.53911,0.0117 -1.30303,-1.32291 -1.30302,-1.32292 h -14.08698 -14.08698 l -0.66146,0.66146 -0.66146,0.66146 h -0.37322 -0.37322 l -0.69714,-0.54837 -0.69714,-0.54837 v -0.4511 -0.45109 l 0.41188,-0.58804 0.41187,-0.58803 h 0.7805 0.7805 l 0.57513,0.66146 0.57513,0.66145 h 14.20366 14.20366 l 1.68977,1.57579 1.68977,1.57578 z m -33.18356,-2.10495 h 0.45267 l 0.30155,-0.36334 0.30154,-0.36334 -0.15731,-0.40996 -0.15732,-0.40995 -0.40995,-0.15731 -0.40995,-0.15732 -0.36334,0.30155 -0.36334,0.30154 v 0.45268 0.45267 l 0.17639,0.17639 0.17639,0.17639 z m -37.08739,-5.02709 h -0.45735 l -0.39687,-0.39687 -0.39688,-0.39688 H 127.99184 88.417736 v -0.39687 -0.39688 h 39.600524 39.60052 l 0.48493,-0.43885 0.48493,-0.43886 0.66038,0.30089 0.66038,0.3009 v 0.61421 0.61421 l -0.3175,0.3175 -0.3175,0.3175 z m 101.56782,-3.63844 -13.95683,0.0666 3e-5,-0.26458 4e-5,-0.26459 21.762,0.12974 21.76201,0.12974 -7.80521,0.0683 -7.80521,0.0683 z m -54.68074,-1.12406 h -0.73354 l -0.43789,-0.48385 -0.43788,-0.48386 v -0.70067 -0.70067 l 0.63344,-0.41504 0.63345,-0.41505 0.69645,0.1748 0.69645,0.1748 0.26692,0.49873 0.26691,0.49873 h 9.3272 9.3272 l 1.30302,-1.32292 1.30303,-1.32291 0.53911,0.0115 0.53911,0.0115 -1.71979,1.57163 -1.71979,1.57164 -9.35463,0.004 -9.35463,0.004 -0.5203,0.66146 -0.5203,0.66145 z m -0.0558,-0.52916 h 0.19277 l 0.3175,-0.3175 0.3175,-0.3175 v -0.48456 -0.48455 l -0.43284,-0.1661 -0.43283,-0.16609 -0.41131,0.25945 -0.41131,0.25944 -0.0937,0.28112 -0.0937,0.28112 0.42758,0.42758 0.42759,0.42759 z m 23.72808,-4.23334 h -0.5306 l 2.10425,-2.11666 2.10425,-2.11667 h 5.26413 5.26412 l -0.32937,0.39687 -0.32938,0.39688 h -4.80389 -4.8039 l -1.7045,1.71979 -1.70451,1.71979 z m -68.30313,-3.43958 h -0.92332 l -0.64943,-0.64943 -0.64943,-0.64943 v -0.29938 -0.29937 l -3.50573,0.0488 -3.50573,0.0488 -4.49791,-0.0382 -4.49792,-0.0382 -2.64583,-2.49603 -2.64584,-2.49603 0.54209,-0.005 0.54209,-0.005 2.23297,2.24326 2.23297,2.24326 7.87442,-0.001 7.87442,-0.001 v -0.35388 -0.35389 l 0.69754,-0.69754 0.69754,-0.69754 h 0.8752 0.87521 l 0.70074,0.60275 0.70073,0.60275 0.0289,1.01863 0.0289,1.01862 -0.72961,0.62759 -0.72961,0.62758 z m 0.0204,-0.52917 h 0.33188 l 0.69714,-0.54837 0.69714,-0.54837 v -0.62305 -0.62305 l -0.70303,-0.553 -0.70303,-0.55301 -0.55374,0.16532 -0.55374,0.16532 -0.3638,0.34486 -0.3638,0.34486 v 0.73524 0.73523 l 0.59155,0.47901 0.59155,0.47901 z m 105.41043,0.52917 h -23.31573 l 0.32938,-0.39688 0.32938,-0.39687 h 22.98635 22.98635 v 0.39687 0.39688 z M 147.78243,139.9915 h -0.53495 l -0.62141,-0.66146 -0.62141,-0.66146 H 117.2112 88.417736 V 138.404 138.13942 H 117.47 146.52227 l 0.89755,0.92604 0.89756,0.92604 z m 122.23181,-13.49375 h -1.82454 l -2.10425,-2.11667 -2.10425,-2.11666 h 0.5306 0.5306 l 1.70451,1.71979 1.7045,1.71979 h 1.36431 1.36431 l 0.32938,0.39687 0.32937,0.39688 z m 15.68277,0 h -13.32906 l -0.32938,-0.39688 -0.32937,-0.39687 h 13.65844 13.65843 v 0.39687 0.39688 z m -21.48033,-4.49792 h -0.53056 l -1.43713,-1.45521 -1.43713,-1.4552 H 246.75988 232.7079 l -0.62141,0.66145 -0.62141,0.66146 h -0.73263 -0.73262 l -0.41188,-0.58804 -0.41188,-0.58803 v -0.4703 -0.47029 l 0.52917,-0.52917 0.52917,-0.52917 h 0.64225 0.64226 l 0.5203,0.66146 0.5203,0.66146 h 14.38936 14.38936 l 1.7045,1.71979 1.7045,1.71979 z m -33.27357,-2.12471 0.0473,0.008 0.41577,-0.41578 0.41578,-0.41577 v -0.22679 -0.22678 l -0.41525,-0.41525 -0.41525,-0.41525 -0.5108,0.27337 -0.51079,0.27336 v 0.50671 0.50671 l 0.46302,0.26969 0.46302,0.26968 z m 50.88505,-8.7232 h -0.26459 v -0.52917 -0.52917 h 0.26459 0.26458 v 0.52917 0.52917 z m -41.2532,-1.5875 h -0.73354 l -0.43788,-0.48386 -0.43788,-0.48385 v -0.57448 -0.57448 l 0.52916,-0.52917 0.52917,-0.52916 h 0.54119 0.5412 l 0.66145,0.66145 0.66146,0.66146 h 9.18579 9.18579 l 3.69708,-3.70416 3.69708,-3.70417 h 5.26146 5.26146 l -0.32938,0.39687 -0.32937,0.39688 -4.79625,5e-4 -4.79625,4.9e-4 -3.56358,3.57138 -3.56357,3.57138 h -9.49522 -9.49522 l -0.52031,0.66146 -0.5203,0.66146 z m 0.0254,-0.55006 0.17954,0.0209 0.42759,-0.42759 0.42758,-0.42758 -0.0937,-0.28112 -0.0937,-0.28111 -0.41131,-0.25945 -0.41131,-0.25945 -0.43284,0.1661 -0.43283,0.16609 v 0.64771 0.64772 l 0.33073,0.13345 0.33072,0.13345 z m 48.07453,-7.91661 h -10.35115 l 0.32938,-0.39688 0.32937,-0.39687 h 10.02177 10.02177 v 0.39687 0.39688 z M 102.70524,51.232962 H 88.814611 l 6.945312,-0.07512 6.945317,-0.07512 6.94531,0.07512 6.94531,0.07512 z m 2.9801,-1.993548 H 88.946902 v -0.396875 -0.396875 h 16.606278 16.60628 l 3.56453,-3.571875 3.56452,-3.571875 h 25.68828 25.68829 l 0.62141,-0.661458 0.62141,-0.661459 h 0.73262 0.73263 l 0.41188,0.588038 0.41187,0.588038 v 0.470296 0.470295 l -0.52916,0.529167 -0.52917,0.529166 h -0.64225 -0.64226 l -0.5203,-0.661458 -0.5203,-0.661458 H 155.3157 129.81794 l -3.69708,3.704166 -3.69708,3.704167 z m 76.89172,-6.931 0.6938,-0.08046 0.0789,-0.55232 0.0789,-0.552319 -0.37611,-0.312141 -0.3761,-0.312142 -0.40996,0.157314 -0.40995,0.157314 -0.14445,0.376418 -0.14444,0.376417 0.15779,0.411188 0.15778,0.411188 z m -41.46193,-4.97525 h -0.30989 l -0.52917,-0.529167 -0.52917,-0.529167 h -25.4 -25.399998 v -0.264583 -0.264583 h 25.540598 25.54059 l 0.1523,-0.396875 0.1523,-0.396875 h 0.71252 0.71253 l 0.3175,0.3175 0.3175,0.3175 v 0.435243 0.435243 l -0.48386,0.437882 -0.48385,0.437882 z m 37.70552,-13.49375 h -0.90238 l -0.69714,-0.548371 -0.69714,-0.54837 v -0.379458 -0.379459 l -25.72139,0.0076 -25.72139,0.0076 -3.45247,-3.445367 -3.45247,-3.445368 H 103.56158 88.946902 v -0.396933 -0.396875 h 14.754198 14.7542 l 3.55845,3.565792 3.55845,3.565791 25.33918,0.0082 25.33918,0.0082 0.37569,-0.89916 0.37569,-0.89916 0.91354,-0.301494 0.91354,-0.301494 0.67287,0.255825 0.67286,0.255824 0.42358,0.604738 0.42357,0.604738 v 0.879197 0.879197 l -0.64943,0.649432 -0.64943,0.649432 z m 0.19231,-0.68522 0.55374,-0.165322 0.30233,-0.302334 0.30233,-0.302333 0.16533,-0.553739 0.16532,-0.553739 -0.55301,-0.703032 -0.553,-0.703032 h -0.64226 -0.64225 l -0.52917,0.529167 -0.52917,0.529167 v 0.642255 0.642254 l 0.70304,0.553005 0.70303,0.553005 z m -52.22039,-19.0923851 -1.20041,1.1244792 1.04565,-1.1244792 1.04565,-1.1244792 H 108.31518 88.946902 V 2.6727464 2.408163 h 19.639088 19.63909 l 1.99056,-1.9182292 1.99055,-1.9182292 -1.84494,1.9182292 -1.84495,1.9182292 h 1.45166 1.45166 l 3.69708,-3.7041667 3.69707,-3.7041668 h 38.85489 38.85488 l 0.45528,-0.5622396 0.45527,-0.5622396 h 0.76177 0.76178 l 0.47901,0.5915512 0.47901,0.5915512 v 0.3795899 0.37959 l -0.64944,0.6494318 -0.64943,0.6494318 h -0.42093 -0.42092 l -0.66146,-0.6614583 -0.66146,-0.6614584 h -38.68696 -38.68697 l -3.56452,3.57187511 -3.56452,3.57187509 h -1.97804 -1.97804 z m 91.4829,-7.7938609 0.39284,-0.077494 0.28846,-0.4580563 0.28846,-0.4580563 -0.43802,-0.4380198 -0.43802,-0.4380198 -0.42339,0.1624709 -0.4234,0.1624708 -0.15589,0.4062456 -0.15589,0.4062455 0.336,0.4048532 0.336,0.4048531 z m 42.99074,6.6693817 h -1.80776 L 257.3542,0.82066298 255.24995,-1.2960037 h 0.53005 0.53006 l 1.83789,1.85208334 1.83789,1.85208336 h 1.38054 1.38055 l 0.16352,0.2645834 0.16352,0.2645833 z m 20.44527,0 H 263.60314 L 263.43962,2.6727464 263.27609,2.408163 h 18.27187 18.27186 v 0.2645834 0.2645833 z m -26.22695,-4.4979168 h -0.53147 l -1.30303,-1.3229167 -1.30302,-1.3229167 h -14.21928 -14.21927 l -0.66146,0.6614584 -0.66146,0.6614583 h -0.37959 -0.37959 l -0.59155,-0.4790091 -0.59155,-0.4790091 v -0.7352394 -0.7352395 l 0.40632,-0.4063244 0.40633,-0.4063244 h 0.73524 0.73524 l 0.45527,0.5622396 0.45528,0.5622396 h 14.38502 14.38502 l 1.70451,1.7197917 1.7045,1.7197917 z m -33.24031,-2.1714649 0.39284,-0.077494 0.28846,-0.4580563 0.28846,-0.4580563 -0.43802,-0.4380198 -0.43802,-0.4380198 -0.42339,0.1624709 -0.4234,0.1624708 -0.15589,0.4062456 -0.15589,0.4062455 0.336,0.4048532 0.336,0.4048531 z M 150.5006,-8.9689206 h -0.63474 l -0.32937,-0.396875 -0.32938,-0.396875 h -30.1301 -30.130108 v -0.2645834 -0.264583 h 29.922328 29.92233 l 0.67273,-0.529167 0.67273,-0.529167 h 0.32018 0.32019 l 0.47986,0.530242 0.47986,0.530241 -0.30089,0.6603839 -0.30089,0.6603835 z m 132.18732,-3.6393434 -9.85587,0.06747 1.4e-4,-0.359036 1.3e-4,-0.359037 0.41852,0.160599 0.41851,0.160599 13.14138,0.05828 13.14139,0.05828 -3.70417,0.07269 -3.70417,0.07269 z m -50.80787,-1.123157 h -0.49507 l -0.57529,-0.612365 -0.57528,-0.612365 v -0.387097 -0.387097 l 0.41187,-0.588038 0.41188,-0.588038 h 0.9088 0.9088 l 0.33047,0.529167 0.33047,0.529167 h 9.40515 9.40516 l 1.30302,-1.322917 1.30303,-1.322917 h 0.53147 0.53146 l -1.7045,1.719792 -1.70451,1.719792 h -9.45447 -9.45447 l -0.66146,0.661458 -0.66145,0.661458 z m -0.0988,-0.79375 h 0.50507 l 0.34778,-0.419053 0.34779,-0.419053 -0.27808,-0.440843 -0.27808,-0.440842 h -0.47149 -0.4715 l -0.26938,0.427058 -0.26938,0.427057 0.1661,0.432838 0.16609,0.432838 z M 255.78,-18.758504 h -0.53005 l 2.10026,-2.112654 2.10026,-2.112654 20.18468,-0.0047 20.18467,-0.0047 v 0.269387 0.269388 l -15.0151,-0.0083 -15.0151,-0.0083 -0.26459,0.01519 -0.26458,0.01519 -4.63021,-0.02009 -4.63021,-0.02009 -1.84499,1.861178 -1.84498,1.861179 z m -102.84972,-3.456355 -0.61567,-0.01677 -0.59746,-0.240082 -0.59746,-0.240082 -0.30491,-0.669189 -0.3049,-0.669189 h -8.09728 -8.09729 l -3.43195,-3.439583 -3.43195,-3.439584 H 108.19916 88.946902 v -0.396875 -0.396875 h 19.384058 19.38405 l 3.43626,3.437299 3.43626,3.437299 7.8779,0.0023 7.8779,0.0023 0.24134,-0.634758 0.24133,-0.634759 0.60474,-0.423575 0.60474,-0.423575 h 0.75523 0.75523 l 0.7734,0.773398 0.7734,0.773397 v 0.834455 0.834456 l -0.7734,0.773397 -0.7734,0.773397 z m -0.15339,-0.828256 0.80832,-0.08101 0.51617,-0.694564 0.51617,-0.694564 -0.33118,-0.628353 -0.33118,-0.628353 -0.29112,-0.194386 -0.29112,-0.194386 -0.64063,-0.0041 -0.64062,-0.0041 -0.48386,0.437882 -0.48385,0.437883 v 0.561579 0.56158 l 0.42229,0.602906 0.42229,0.602906 z"
         id="path16" /></g></g></svg>
