<?xml version="1.0" encoding="UTF-8" standalone="no"?>
<!-- Created with Inkscape (http://www.inkscape.org/) -->

<svg
   xmlns:dc="http://purl.org/dc/elements/1.1/"
   xmlns:cc="http://creativecommons.org/ns#"
   xmlns:rdf="http://www.w3.org/1999/02/22-rdf-syntax-ns#"
   xmlns:svg="http://www.w3.org/2000/svg"
   xmlns="http://www.w3.org/2000/svg"
   xmlns:sodipodi="http://sodipodi.sourceforge.net/DTD/sodipodi-0.dtd"
   xmlns:inkscape="http://www.inkscape.org/namespaces/inkscape"
   width="210mm"
   height="297mm"
   viewBox="0 0 210 297"
   version="1.1"
   id="svg5352"
   inkscape:version="0.92.3 (2405546, 2018-03-11)"
   sodipodi:docname="Logo-GLUD.svg">
  <defs
     id="defs5346" />
  <sodipodi:namedview
     id="base"
     pagecolor="#ffffff"
     bordercolor="#666666"
     borderopacity="1.0"
     inkscape:pageopacity="0.0"
     inkscape:pageshadow="2"
     inkscape:zoom="0.35"
     inkscape:cx="400"
     inkscape:cy="560"
     inkscape:document-units="mm"
     inkscape:current-layer="layer1"
     showgrid="false"
     inkscape:window-width="1024"
     inkscape:window-height="684"
     inkscape:window-x="0"
     inkscape:window-y="28"
     inkscape:window-maximized="1" />
  <metadata
     id="metadata5349">
    <rdf:RDF>
      <cc:Work
         rdf:about="">
        <dc:format>image/svg+xml</dc:format>
        <dc:type
           rdf:resource="http://purl.org/dc/dcmitype/StillImage" />
        <dc:title></dc:title>
      </cc:Work>
    </rdf:RDF>
  </metadata>
  <g
     inkscape:label="Capa 1"
     inkscape:groupmode="layer"
     id="layer1">
    <g
       id="g88469"
       transform="matrix(7.7020596,0,0,7.7020596,-687.25837,-186.92642)"
       style="fill:#ffffff"
       inkscape:export-xdpi="300"
       inkscape:export-ydpi="300">
      <g
         transform="matrix(0.35277777,0,0,-0.35277777,114.29479,25.874637)"
         id="g5210"
         style="fill:#ffffff">
        <path
           inkscape:connector-curvature="0"
           id="path5212"
           style="fill:#ffffff;fill-opacity:1;fill-rule:nonzero;stroke:none"
           d="m 0,0 -1.86,-1.735 c -3.521,-3.139 -7.991,-4.999 -12.411,-6.449 -0.985,-0.111 -2.04,0.999 -2.901,0 -1.074,-0.354 -2.852,-0.261 -2.947,-1.791 -2.352,-1.504 -5.406,-1.785 -7.69,-3.483 0.455,-0.492 1.567,0.332 2.172,0.388 2.004,0.531 3.908,1.903 6.005,1.89 0.83,-2.514 0.761,-5.386 0.911,-8.058 -0.062,-1.753 -2.004,-2.722 -2.99,-3.97 -1.116,-1.323 -2.302,-2.416 -4.1,-1.716 -1.785,0.455 -3.627,-1.506 -5.18,-0.025 -1.175,0.867 -2.073,2.715 -0.738,3.876 1.573,2.053 3.908,4.756 2.709,7.515 -2.403,2.247 -5.762,3.229 -8.894,3.99 -3.478,0.192 -6.019,3.159 -9.508,3.433 -3.714,0.525 -7.765,0.555 -11.217,-1.08 -0.861,-0.481 0.025,-1.33 0.731,-1.162 3.92,-0.367 7.591,-0.068 8.651,-0.105 0.949,0.043 5.249,-1.231 6.143,-2.59 -0.244,-1.006 -1.817,0.143 -2.472,-0.026 -4.108,0.874 -8.789,0.83 -12.167,-2.041 -1.403,-1.243 -3.345,-2.453 -3.789,-4.382 0.743,-0.893 2.079,0.412 2.858,0.731 2.486,1.534 4.852,3.664 7.954,3.563 1.036,-0.068 2.684,0.4 3.37,-0.556 -0.006,-1.415 -2.008,-0.885 -2.889,-1.209 -4.889,-0.55 -7.829,-5.338 -8.796,-9.794 -0.006,-0.439 -0.58,-1.768 0.057,-1.83 2.265,3.127 4.008,7.353 7.895,8.746 1.336,0.274 3.478,0.724 4.339,-0.645 -0.193,-1.191 -1.916,-1.402 -2.728,-2.059 -3.914,-2.484 -7.84,-6.354 -7.746,-11.373 0.119,-1.149 1.279,0.256 1.485,0.648 1.561,2.505 2.635,5.682 5.638,6.805 1.735,0.662 3.763,1.823 5.623,1.211 0.125,-0.704 -1.367,-0.743 -1.797,-1.048 -4.114,-1.13 -7.067,-5.043 -7.329,-9.289 -0.312,-0.874 0.575,-1.667 1.299,-0.992 1.797,2.677 2.751,6.299 5.937,7.759 3.612,1.759 8.252,2.634 11.934,0.624 3.876,-2.883 7.046,-6.972 8.576,-11.599 0.35,-2.808 0.657,-5.842 -0.256,-8.564 -1.116,-3.307 -4.031,-5.705 -4.948,-9.063 0.711,-1.605 0.723,-3.364 0.386,-5.093 -0.325,-0.999 0.081,-2.772 -1.042,-3.309 -2.36,0.805 -4.002,3.296 -6.424,3.92 -1.142,-2.097 -1.411,-4.694 -1.667,-7.066 0.082,-0.88 -0.099,-2.834 1.167,-2.828 1.917,1.28 1.586,4.045 2.465,5.924 1.868,-0.269 3.802,-2.047 5.713,-1.241 0.555,0.254 0.718,1.647 1.33,1.384 0.754,-3.451 -2.249,-5.96 -3.565,-8.782 -0.485,-1.642 1.185,-2.933 2.704,-2.872 2.472,-0.642 5.437,-0.817 7.665,0.606 0.961,1.011 -0.932,1.804 -1.705,1.978 -1.666,0.557 -3.576,0.544 -5.174,1.006 1.198,3.028 2.427,6.099 2.479,9.42 -0.026,1.667 1.222,3.026 2.87,3.139 3.227,0.736 4.144,4.382 5.387,7.016 2.016,5.082 2.209,10.836 1.167,16.167 -0.75,3.234 -2.184,6.268 -3.733,9.151 1.73,1.655 3.952,2.954 5.718,4.651 1.044,1.055 2.784,2.103 2.809,3.664 -0.78,2.44 -2.521,4.731 -2.584,7.348 0.374,0.835 1.186,1.454 1.229,2.44 2.523,1.499 5.576,1.961 8.341,2.901 2.328,0.731 4.8,0.919 7.14,1.444 C 0.494,-3.265 0.111,-1.572 0,0.007 Z m -17.353,-12.447 c 1.442,-2.09 2.64,-4.499 3.328,-6.952 -0.387,-1.107 -1.855,-1.655 -2.747,-2.037 -0.319,2.934 -0.606,5.924 -0.718,8.865 0.017,0.062 0.062,0.143 0.137,0.124" />
      </g>
      <text
         id="text5216"
         style="font-variant:normal;font-weight:normal;font-stretch:normal;font-size:9.19961834px;font-family:Verdana;-inkscape-font-specification:Verdana;writing-mode:lr-tb;fill:#ffffff;fill-opacity:1;fill-rule:nonzero;stroke:none;stroke-width:0.35111439"
         transform="scale(0.99528484,1.0047375)"
         x="90.274109"
         y="59.714046">
        <tspan
           id="tspan5214"
           sodipodi:role="line"
           y="59.714046"
           x="90.274109 97.403816 102.528 109.26212"
           style="fill:#ffffff;stroke-width:0.35111439">GLUD</tspan>
      </text>
    </g>
  </g>
</svg>
