<?xml version="1.0" encoding="UTF-8" standalone="no"?>
<!-- Created with Inkscape (http://www.inkscape.org/) -->

<svg
   width="730"
   height="630"
   viewBox="0 0 193.14583 166.6875"
   version="1.1"
   id="svg1"
   xml:space="preserve"
   inkscape:version="1.3 (0e150ed6c4, 2023-07-21)"
   sodipodi:docname="Marco.svg"
   xmlns:inkscape="http://www.inkscape.org/namespaces/inkscape"
   xmlns:sodipodi="http://sodipodi.sourceforge.net/DTD/sodipodi-0.dtd"
   xmlns="http://www.w3.org/2000/svg"
   xmlns:svg="http://www.w3.org/2000/svg"><sodipodi:namedview
     id="namedview1"
     pagecolor="#505050"
     bordercolor="#eeeeee"
     borderopacity="1"
     inkscape:showpageshadow="0"
     inkscape:pageopacity="0"
     inkscape:pagecheckerboard="0"
     inkscape:deskcolor="#d1d1d1"
     inkscape:document-units="mm"
     inkscape:zoom="0.4894542"
     inkscape:cx="415.76924"
     inkscape:cy="417.81233"
     inkscape:window-width="1920"
     inkscape:window-height="991"
     inkscape:window-x="-9"
     inkscape:window-y="-9"
     inkscape:window-maximized="1"
     inkscape:current-layer="layer1" /><defs
     id="defs1" /><g
     inkscape:label="Capa 1"
     inkscape:groupmode="layer"
     id="layer1"><path
       style="display:inline;fill:#131313;stroke-width:0.775731"
       d="m 189.00384,147.45124 v 2.2577 h -2.2577 -2.2577 v -1.84721 -1.84721 h -1.64197 -1.64195 v 1.84721 1.84721 H 95.514542 9.8245689 v -1.84721 -1.84721 H 8.2852319 6.7458872 v 1.84721 1.84721 H 4.3855633 2.0252471 v -2.2577 -2.2577 H 3.9750775 5.924908 v -1.53934 -1.53934 H 3.9750775 2.0252471 V 79.720248 17.325631 H 3.9750775 5.924908 V 15.786294 14.246949 H 3.9750775 2.0252471 V 11.989247 9.7315526 h 2.3603162 2.3603239 v 1.8472094 1.847209 h 1.5393447 1.539337 V 11.578762 9.7315526 H 95.514542 181.20452 v 1.8472094 1.847209 h 1.64195 1.64197 V 11.578762 9.7315526 h 2.2577 2.2577 v 2.2576944 2.257702 h -1.94983 -1.94984 v 1.539345 1.539337 h 1.94984 1.94983 v 62.394617 62.394612 h -1.94983 -1.94984 v 1.53934 1.53934 h 1.94984 1.94983 z m -0.82098,0.10262 v -1.53934 h -1.53935 -1.53933 v 1.53934 1.53935 h 1.53933 1.53935 z m 0,-67.833612 V 18.14661 h -1.84721 -1.84721 v -1.94983 -1.949831 h -1.94983 -1.94983 v -1.94983 -1.94983 H 95.514542 10.440305 v 1.94983 1.94983 H 8.6007992 6.7612932 l -0.059033,1.898524 -0.059033,1.898516 -1.8985236,0.05903 -1.8985159,0.05903 v 61.558232 61.558233 l 1.8985159,0.059 1.8985236,0.059 0.059033,1.89853 0.059033,1.89852 h 1.839506 1.839506 v 1.94983 1.94982 h 85.074237 85.074238 v -1.94982 -1.94983 h 1.94983 1.94983 v -1.94984 -1.94983 h 1.84721 1.84721 z m -5.13113,63.523462 v 0.51311 h -0.51312 -0.51311 v -0.51311 -0.51311 h 0.51311 0.51312 z m 0,-127.04693 v 0.513115 h -0.51312 -0.51311 V 16.19678 15.683665 h 0.51311 0.51312 z M 9.0035897,143.24371 v 0.51311 H 8.4904748 7.9773599 v -0.51311 -0.51311 h 0.5131149 0.5131149 z m 0,-127.04693 v 0.513115 H 8.4904748 7.9773599 V 16.19678 15.683665 H 8.4904748 9.0035897 Z M 188.18286,11.886626 v -1.539337 h -1.53935 -1.53933 v 1.539337 1.539345 h 1.53933 1.53935 z M 5.924908,147.55386 v -1.53934 H 4.3855633 2.8462263 v 1.53934 1.53935 h 1.539337 1.5393447 z m 0,-135.667234 V 10.347289 H 4.3855633 2.8462263 v 1.539337 1.539345 h 1.539337 1.5393447 z"
       id="path55" /></g></svg>
